<svg width="12" height="11" viewBox="0 0 12 11" fill="none" xmlns="http://www.w3.org/2000/svg">
<path id="*" d="M5.53244 7.10565C5.34016 7.71745 5.11292 8.33799 4.85072 8.96727C4.58852 9.57908 4.36128 10.0161 4.169 10.2783C3.87183 10.7328 3.46105 10.96 2.93665 10.96C2.51713 10.96 2.15879 10.8202 1.86163 10.5405C1.56447 10.2433 1.41589 9.91994 1.41589 9.57034C1.41589 9.1683 1.54699 8.80121 1.80919 8.46909C2.00147 8.20689 2.34233 7.86603 2.83177 7.44651C3.33869 7.00951 3.85435 6.61621 4.37876 6.2666C3.71451 6.2666 3.07649 6.24038 2.46469 6.18794C1.87037 6.11802 1.41589 6.0481 1.10124 5.97818C0.367081 5.76842 0 5.31394 0 4.61474C0 4.16026 0.1311 3.79318 0.393301 3.51349C0.672982 3.21633 1.01384 3.06775 1.41589 3.06775C1.67809 3.06775 1.93155 3.11145 2.17627 3.19885C2.43847 3.30373 2.78807 3.49601 3.22507 3.7757C3.67955 4.05538 4.20396 4.4312 4.79828 4.90316C4.58852 4.29136 4.40498 3.66207 4.24766 3.01531C4.10782 2.35107 4.0379 1.85289 4.0379 1.52077C4.0379 1.06628 4.169 0.699203 4.4312 0.419522C4.71088 0.139841 5.07796 0 5.53244 0C5.98692 0 6.34526 0.139841 6.60747 0.419522C6.88715 0.699203 7.02699 1.06628 7.02699 1.52077C7.02699 1.85289 6.94833 2.35107 6.79101 3.01531C6.65117 3.66207 6.47636 4.29136 6.2666 4.90316C6.87841 4.4312 7.40281 4.05538 7.83981 3.7757C8.27681 3.49601 8.62641 3.30373 8.88861 3.19885C9.13333 3.11145 9.3868 3.06775 9.649 3.06775C10.051 3.06775 10.3832 3.21633 10.6454 3.51349C10.925 3.79318 11.0649 4.16026 11.0649 4.61474C11.0649 5.31394 10.6978 5.76842 9.96364 5.97818C9.649 6.0481 9.18577 6.11802 8.57397 6.18794C7.97965 6.24038 7.35037 6.2666 6.68612 6.2666C7.21053 6.61621 7.71745 7.00951 8.20689 7.44651C8.71381 7.86603 9.06341 8.20689 9.25569 8.46909C9.5179 8.80121 9.649 9.1683 9.649 9.57034C9.649 9.91994 9.50042 10.2433 9.20325 10.5405C8.90609 10.8202 8.54775 10.96 8.12823 10.96C7.60383 10.96 7.19305 10.7328 6.89589 10.2783C6.72109 10.0161 6.49384 9.57908 6.21416 8.96727C5.95196 8.33799 5.72472 7.71745 5.53244 7.10565Z" fill="#F40F92"/>
</svg>
