<svg width="16" height="16" viewBox="0 0 16 16" fill="none" xmlns="http://www.w3.org/2000/svg">
<g clip-path="url(#clip0_615_620)">
<path d="M0.292786 0.292593C0.480314 0.105122 0.734622 -0.000193557 0.999786 -0.000193557C1.26495 -0.000193557 1.51926 0.105122 1.70679 0.292593L7.99979 6.58559L14.2928 0.292593C14.385 0.197083 14.4954 0.1209 14.6174 0.0684915C14.7394 0.0160825 14.8706 -0.0115037 15.0034 -0.0126576C15.1362 -0.0138114 15.2678 0.0114903 15.3907 0.0617712C15.5136 0.112052 15.6253 0.186305 15.7192 0.280198C15.8131 0.374091 15.8873 0.485743 15.9376 0.608639C15.9879 0.731535 16.0132 0.863215 16.012 0.995994C16.0109 1.12877 15.9833 1.25999 15.9309 1.382C15.8785 1.504 15.8023 1.61435 15.7068 1.70659L9.41379 7.99959L15.7068 14.2926C15.8889 14.4812 15.9897 14.7338 15.9875 14.996C15.9852 15.2582 15.88 15.509 15.6946 15.6944C15.5092 15.8798 15.2584 15.985 14.9962 15.9873C14.734 15.9895 14.4814 15.8888 14.2928 15.7066L7.99979 9.41359L1.70679 15.7066C1.51818 15.8888 1.26558 15.9895 1.00339 15.9873C0.741189 15.985 0.490376 15.8798 0.304968 15.6944C0.11956 15.509 0.0143908 15.2582 0.0121124 14.996C0.00983399 14.7338 0.110628 14.4812 0.292786 14.2926L6.58579 7.99959L0.292786 1.70659C0.105315 1.51907 0 1.26476 0 0.999593C0 0.734429 0.105315 0.480121 0.292786 0.292593Z" fill="white"/>
</g>
<defs>
<clipPath id="clip0_615_620">
<rect width="16" height="16" fill="white"/>
</clipPath>
</defs>
</svg>
