<svg width="48" height="48" viewBox="0 0 48 48" fill="none" xmlns="http://www.w3.org/2000/svg">
<path opacity="0.4" d="M16 12C16 7.58172 19.5817 4 24 4H36.0001C40.4183 4 44.0001 7.58172 44.0001 12V24C44.0001 28.4183 40.4183 32 36.0001 32H26.0158V24H16V12Z" fill="#4D3886"/>
<path fill-rule="evenodd" clip-rule="evenodd" d="M12 16C7.58172 16 4 19.5817 4 24V36C4 40.4183 7.58173 44 12 44H24.0001C28.4183 44 32.0001 40.4183 32.0001 36V24C32.0001 19.5817 28.4183 16 24.0001 16H12ZM25.1289 27.3667C25.6744 26.7432 25.6113 25.7956 24.9878 25.2501C24.3644 24.7045 23.4167 24.7677 22.8712 25.3912L17.1314 31.951C16.9552 32.1523 16.6517 32.1793 16.4427 32.0121L12.9371 29.2076C12.2902 28.6901 11.3463 28.795 10.8288 29.4419C10.3112 30.0888 10.4161 31.0327 11.063 31.5502L14.5687 34.3547C16.0312 35.5248 18.1557 35.3361 19.3891 33.9265L25.1289 27.3667Z" fill="#4D3886"/>
</svg>
