<svg width="24" height="24" viewBox="0 0 24 24" fill="none" xmlns="http://www.w3.org/2000/svg">
<path d="M11.2463 11.5695C11.2463 12.1245 10.8188 12.582 10.2938 12.582C9.76875 12.582 9.34125 12.132 9.34125 11.577C9.34125 11.022 9.76875 10.572 10.2938 10.572C10.8188 10.572 11.2463 11.022 11.2463 11.5695ZM14.6565 11.5695C14.6565 12.1245 14.229 12.582 13.704 12.582C13.179 12.582 12.7515 12.132 12.7515 11.577C12.7515 11.022 13.179 10.572 13.704 10.572C14.229 10.572 14.6565 11.022 14.6565 11.5695ZM18.1125 19.2975L17.01 18.2925L15.81 17.2425L16.3125 18.9H5.7825C4.7325 18.9 3.8775 18.0975 3.8775 17.04V4.86C3.8775 3.855 4.7325 3 5.7825 3H18.165C19.2225 3 20.07 3.855 20.1225 4.86V21L18.1125 19.2975ZM13.5503 7.2675L13.5353 7.275H13.5428L13.5503 7.2675ZM13.5578 7.26L13.5503 7.2675L13.5728 7.26H13.5578ZM13.4078 7.41C14.9603 7.86 15.7103 8.565 15.7103 8.565C14.7128 8.0625 13.8053 7.815 12.9053 7.71C12.2528 7.6125 11.6003 7.665 11.0453 7.71H10.8953C10.5428 7.71 9.79275 7.86 8.78775 8.265C8.44275 8.415 8.24025 8.5125 8.24025 8.5125C8.24025 8.5125 8.99025 7.7625 10.6478 7.365L10.5428 7.26C10.5428 7.26 9.29025 7.215 7.94025 8.2125C7.94025 8.2125 6.58275 10.575 6.58275 13.4775C6.58275 13.4775 7.33275 14.7825 9.38775 14.835C9.38775 14.835 9.68775 14.4375 9.99525 14.085C8.84025 13.7325 8.39025 13.0275 8.39025 13.0275C8.39025 13.0275 8.48775 13.08 8.63775 13.1775H8.68275C8.70525 13.1775 8.72025 13.1925 8.72775 13.2V13.2075C8.74275 13.215 8.75025 13.23 8.77275 13.23C9.02025 13.3275 9.26775 13.4325 9.47025 13.53C9.82275 13.68 10.2728 13.83 10.8203 13.9275C11.5178 14.0325 12.3203 14.0775 13.2278 13.9275C13.6778 13.83 14.1278 13.7325 14.5778 13.53C14.8703 13.38 15.2303 13.23 15.6278 12.975C15.6278 12.975 15.1778 13.68 13.9778 14.0325C14.2253 14.3775 14.5703 14.7825 14.5703 14.7825C16.6253 14.7375 17.4278 13.4325 17.4728 13.485C17.4728 10.5825 16.1153 8.22 16.1153 8.22C14.9003 7.32 13.7678 7.275 13.5428 7.275L13.4078 7.41Z" fill="#5865F2"/>
</svg>
