<svg width="48" height="48" viewBox="0 0 48 48" fill="none" xmlns="http://www.w3.org/2000/svg">
<g id="Huge-icon/interface/bulk/disk">
<g id="disk">
<path id="Rectangle 354" opacity="0.4" d="M4 12C4 7.58172 7.58172 4 12 4H29.5752C31.6969 4 33.7317 4.84285 35.232 6.34315L41.6569 12.768C43.1571 14.2683 44 16.3031 44 18.4248V36C44 40.4183 40.4183 44 36 44H12C7.58172 44 4 40.4183 4 36V12Z" fill="#4D3886"/>
<path id="Vector 866" d="M14 32V44H34V32C34 29.7909 32.2091 28 30 28H18C15.7909 28 14 29.7909 14 32Z" fill="#4D3886"/>
<path id="Vector 867 (Stroke)" fill-rule="evenodd" clip-rule="evenodd" d="M31.5 14C31.5 14.8284 30.8284 15.5 30 15.5L18 15.5C17.1716 15.5 16.5 14.8284 16.5 14C16.5 13.1716 17.1716 12.5 18 12.5L30 12.5C30.8284 12.5 31.5 13.1716 31.5 14Z" fill="#4D3886"/>
</g>
</g>
</svg>
