<svg width="48" height="48" viewBox="0 0 48 48" fill="none" xmlns="http://www.w3.org/2000/svg">
<g id="Huge-icon/interface/bulk/filter 8">
<g id="filter">
<path id="Subtract" fill-rule="evenodd" clip-rule="evenodd" d="M8.00151 16.9007C8.00051 16.818 8 16.7353 8 16.6523H8.01932C8.01011 16.7348 8.00415 16.8175 8.00151 16.9007ZM8.00806 17.2252C8.21245 24.4813 12.2861 30.647 18 33.2315V40.0217C18 42.9752 21.1292 44.8961 23.7889 43.5753L27.7889 41.5888C29.144 40.9158 30 39.5401 30 38.0352V33.2315C35.8637 30.5792 40 24.1556 40 16.6523H39.9805C39.9898 16.7353 39.9958 16.8185 39.9984 16.9022C39.9971 17.0096 39.9949 17.1168 39.9919 17.2237C39.7219 20.9862 32.6654 24 23.9999 24C15.3356 24 8.2798 20.987 8.00806 17.2252Z" fill="#4D3886"/>
<ellipse id="Ellipse 1194" opacity="0.4" cx="24" cy="17" rx="16" ry="7" fill="#4D3886"/>
<path id="Vector 444 (Stroke)" fill-rule="evenodd" clip-rule="evenodd" d="M28 8.5C28.8284 8.5 29.5 9.17157 29.5 10V14C29.5 14.8284 28.8284 15.5 28 15.5C27.1716 15.5 26.5 14.8284 26.5 14V10C26.5 9.17157 27.1716 8.5 28 8.5Z" fill="#4D3886"/>
<path id="Vector 445 (Stroke)" fill-rule="evenodd" clip-rule="evenodd" d="M20 12.5C20.8284 12.5 21.5 13.1716 21.5 14V16C21.5 16.8284 20.8284 17.5 20 17.5C19.1716 17.5 18.5 16.8284 18.5 16V14C18.5 13.1716 19.1716 12.5 20 12.5Z" fill="#4D3886"/>
<path id="Vector 446 (Stroke)" fill-rule="evenodd" clip-rule="evenodd" d="M20 2.5C20.8284 2.5 21.5 3.17157 21.5 4V8C21.5 8.82843 20.8284 9.5 20 9.5C19.1716 9.5 18.5 8.82843 18.5 8V4C18.5 3.17157 19.1716 2.5 20 2.5Z" fill="#4D3886"/>
</g>
</g>
</svg>
