<svg width="24" height="24" viewBox="0 0 24 24" fill="none" xmlns="http://www.w3.org/2000/svg">
<path d="M12.0001 3C7.03012 3 3 7.13136 3 12.2279C3 16.305 5.57879 19.764 9.1548 20.9841C9.6046 21.0696 9.76973 20.784 9.76973 20.5402C9.76973 20.3202 9.76138 19.5933 9.75751 18.8222C7.25368 19.3804 6.72534 17.7334 6.72534 17.7334C6.31593 16.6668 5.72604 16.3832 5.72604 16.3832C4.90947 15.8105 5.7876 15.8222 5.7876 15.8222C6.69136 15.8873 7.16724 16.7732 7.16724 16.7732C7.96995 18.1839 9.27269 17.7761 9.78627 17.5403C9.86705 16.9439 10.1003 16.5368 10.3577 16.3063C8.35864 16.073 6.25721 15.2818 6.25721 11.7459C6.25721 10.7384 6.60879 9.91524 7.18453 9.26901C7.09108 9.03658 6.78302 8.09803 7.27171 6.82696C7.27171 6.82696 8.02748 6.57895 9.74737 7.77285C10.4653 7.56839 11.2352 7.46586 12.0001 7.46234C12.7649 7.46586 13.5355 7.56839 14.2547 7.77285C15.9725 6.57895 16.7272 6.82696 16.7272 6.82696C17.2171 8.09803 16.9089 9.03658 16.8155 9.26901C17.3925 9.91524 17.7417 10.7384 17.7417 11.7459C17.7417 15.2902 15.6363 16.0706 13.6322 16.299C13.955 16.5854 14.2426 17.1469 14.2426 18.0079C14.2426 19.2426 14.2322 20.2363 14.2322 20.5402C14.2322 20.7858 14.3942 21.0735 14.8504 20.9829C18.4245 19.7614 21 16.3036 21 12.2279C21 7.13136 16.9705 3 12.0001 3Z" fill="#161514"/>
<path d="M5.32239 17.0228C5.29865 17.0773 5.21439 17.0936 5.13763 17.0562C5.05945 17.0205 5.01553 16.9462 5.04088 16.8916C5.06409 16.8355 5.14852 16.8198 5.22653 16.8574C5.3049 16.8932 5.34953 16.9682 5.32239 17.0228Z" fill="#161514"/>
<path d="M5.75904 17.5181C5.70762 17.5666 5.60712 17.5441 5.53893 17.4675C5.46842 17.391 5.45521 17.2888 5.50733 17.2396C5.56035 17.1911 5.65782 17.2138 5.72851 17.2903C5.79902 17.3676 5.81277 17.4691 5.75904 17.5181Z" fill="#161514"/>
<path d="M6.18407 18.1496C6.11802 18.1963 6.01002 18.1525 5.94326 18.055C5.87721 17.9575 5.87721 17.8406 5.94469 17.7937C6.01163 17.7469 6.11802 17.789 6.18568 17.8858C6.25155 17.9849 6.25155 18.1019 6.18407 18.1496Z" fill="#161514"/>
<path d="M6.76638 18.7597C6.70729 18.8259 6.58144 18.8081 6.48933 18.7177C6.39508 18.6293 6.36883 18.5038 6.4281 18.4376C6.4879 18.3711 6.61447 18.3898 6.70729 18.4795C6.80083 18.5678 6.8294 18.6941 6.76638 18.7597Z" fill="#161514"/>
<path d="M7.56969 19.1139C7.54362 19.1998 7.42241 19.2388 7.30031 19.2023C7.17839 19.1647 7.09859 19.0641 7.12323 18.9774C7.14858 18.8909 7.27032 18.8503 7.39332 18.8893C7.51506 18.9267 7.59504 19.0266 7.56969 19.1139Z" fill="#161514"/>
<path d="M8.4519 19.1796C8.45493 19.27 8.35139 19.345 8.22322 19.3467C8.09433 19.3496 7.99008 19.2764 7.98866 19.1874C7.98866 19.0961 8.08987 19.0218 8.21876 19.0197C8.34693 19.0171 8.4519 19.0897 8.4519 19.1796Z" fill="#161514"/>
<path d="M9.27287 19.0375C9.28823 19.1257 9.19915 19.2163 9.07187 19.2404C8.94673 19.2637 8.83088 19.2092 8.81499 19.1217C8.79946 19.0313 8.89014 18.9407 9.0151 18.9173C9.14256 18.8947 9.25663 18.9478 9.27287 19.0375Z" fill="#161514"/>
</svg>
