<svg width="48" height="48" viewBox="0 0 48 48" fill="none" xmlns="http://www.w3.org/2000/svg">
<g id="Huge-icon/interface/bulk/globe">
<g id="globe">
<ellipse id="Ellipse 1085" opacity="0.4" cx="24" cy="24" rx="20" ry="20" fill="#4D3886"/>
<path id="Union" fill-rule="evenodd" clip-rule="evenodd" d="M19.1137 16.1431C19.4374 14.2841 19.8708 12.6132 20.3858 11.1968C20.9723 9.58393 21.6405 8.36853 22.3183 7.58021C22.9996 6.78774 23.5724 6.55318 24.0004 6.55318C24.4284 6.55318 25.0013 6.78774 25.6826 7.58021C26.3603 8.36853 27.0285 9.58393 27.615 11.1968C28.1301 12.6132 28.5634 14.2841 28.8871 16.1431C27.3213 15.9937 25.6834 15.9149 24.0004 15.9149C22.3175 15.9149 20.6796 15.9937 19.1137 16.1431ZM16.4723 16.4719C16.828 14.1762 17.3432 12.0931 17.9864 10.3243C18.632 8.54888 19.4309 7.02231 20.3822 5.91573C21.33 4.81328 22.5483 4 24.0004 4C25.4525 4 26.6708 4.81328 27.6186 5.91573C28.57 7.02231 29.3689 8.54888 30.0145 10.3243C30.6577 12.0931 31.1729 14.1762 31.5285 16.4719C33.8242 16.8275 35.9073 17.3427 37.6761 17.9859C39.4515 18.6315 40.9781 19.4304 42.0846 20.3818C43.1871 21.3296 44.0004 22.5478 44.0004 23.9999C44.0004 25.452 43.1871 26.6703 42.0846 27.6181C40.9781 28.5695 39.4515 29.3684 37.6761 30.014C35.9073 30.6572 33.8242 31.1724 31.5285 31.528C31.1729 33.8237 30.6577 35.9068 30.0145 37.6756C29.3689 39.451 28.57 40.9776 27.6186 42.0842C26.6708 43.1866 25.4525 43.9999 24.0004 43.9999C22.5483 43.9999 21.33 43.1866 20.3822 42.0842C19.4309 40.9776 18.632 39.451 17.9864 37.6756C17.3432 35.9068 16.828 33.8237 16.4723 31.528C14.1767 31.1724 12.0936 30.6572 10.3248 30.014C8.54937 29.3684 7.0228 28.5695 5.91621 27.6181C4.81377 26.6703 4.00049 25.452 4.00049 23.9999C4.00049 22.5478 4.81377 21.3296 5.91621 20.3817C7.0228 19.4304 8.54937 18.6315 10.3248 17.9859C12.0936 17.3427 14.1767 16.8275 16.4723 16.4719ZM16.1436 28.8866C14.2846 28.563 12.6137 28.1296 11.1973 27.6145C9.58442 27.028 8.36901 26.3598 7.58069 25.6821C6.78823 25.0008 6.55367 24.428 6.55367 23.9999C6.55367 23.5719 6.78823 22.9991 7.58069 22.3178C8.36901 21.64 9.58442 20.9718 11.1973 20.3853C12.6137 19.8703 14.2846 19.4369 16.1436 19.1133C15.9942 20.6791 15.9153 22.317 15.9153 23.9999C15.9153 25.6829 15.9942 27.3208 16.1436 28.8866ZM18.7475 29.2529C18.5667 27.5967 18.4685 25.8334 18.4685 23.9999C18.4685 22.1665 18.5667 20.4032 18.7475 18.747C20.4037 18.5662 22.1669 18.468 24.0004 18.468C25.8339 18.468 27.5972 18.5662 29.2534 18.747C29.4342 20.4032 29.5323 22.1665 29.5323 23.9999C29.5323 25.8334 29.4342 27.5967 29.2534 29.2529C27.5972 29.4337 25.8339 29.5318 24.0004 29.5318C22.1669 29.5318 20.4037 29.4337 18.7475 29.2529ZM19.1137 31.8568C19.4374 33.7158 19.8708 35.3867 20.3858 36.8031C20.9723 38.416 21.6405 39.6314 22.3183 40.4197C22.9996 41.2121 23.5724 41.4467 24.0004 41.4467C24.4284 41.4467 25.0013 41.2121 25.6826 40.4197C26.3603 39.6314 27.0285 38.416 27.615 36.8031C28.1301 35.3867 28.5634 33.7158 28.8871 31.8568C27.3213 32.0062 25.6834 32.085 24.0004 32.085C22.3175 32.085 20.6796 32.0062 19.1137 31.8568ZM31.8572 28.8866C33.7162 28.563 35.3871 28.1296 36.8036 27.6145C38.4164 27.028 39.6318 26.3598 40.4202 25.6821C41.2126 25.0008 41.4472 24.428 41.4472 23.9999C41.4472 23.5719 41.2126 22.9991 40.4202 22.3178C39.6318 21.64 38.4164 20.9718 36.8036 20.3853C35.3871 19.8703 33.7162 19.4369 31.8572 19.1133C32.0066 20.6791 32.0855 22.317 32.0855 23.9999C32.0855 25.6829 32.0066 27.3208 31.8572 28.8866Z" fill="#4D3886"/>
</g>
</g>
</svg>
