<svg width="48" height="48" viewBox="0 0 48 48" fill="none" xmlns="http://www.w3.org/2000/svg">
<g id="Huge-icon/interface/bulk/interactive">
<g id="interactive">
<path id="Vector 2461" d="M29.3399 42.5229L24.1146 26.8471C23.5517 25.1583 25.1583 23.5517 26.8471 24.1146L42.5229 29.3399C44.4924 29.9964 44.4924 32.7821 42.5229 33.4386L36.7344 35.3681C36.0893 35.5831 35.5831 36.0893 35.3681 36.7344L33.4386 42.5229C32.7821 44.4924 29.9964 44.4924 29.3399 42.5229Z" fill="#4D3886"/>
<path id="Vector (Stroke)" opacity="0.4" fill-rule="evenodd" clip-rule="evenodd" d="M24 15.5C19.3056 15.5 15.5 19.3056 15.5 24C15.5 27.567 17.6976 30.6243 20.8184 31.885C21.5866 32.1953 21.9577 33.0695 21.6474 33.8376C21.3371 34.6057 20.4629 34.9769 19.6948 34.6666C15.479 32.9636 12.5 28.8315 12.5 24C12.5 17.6487 17.6487 12.5 24 12.5C28.8315 12.5 32.9636 15.479 34.6666 19.6948C34.9769 20.4629 34.6057 21.3371 33.8376 21.6474C33.0695 21.9577 32.1953 21.5866 31.885 20.8184C30.6243 17.6976 27.567 15.5 24 15.5Z" fill="#4D3886"/>
<path id="Vector (Stroke)_2" opacity="0.4" fill-rule="evenodd" clip-rule="evenodd" d="M24 5.5C13.7827 5.5 5.5 13.7827 5.5 24C5.5 34.1651 13.6985 42.4154 23.8435 42.4994C24.6719 42.5062 25.3379 43.1833 25.3311 44.0117C25.3242 44.8401 24.6471 45.5061 23.8187 45.4993C12.0279 45.4017 2.5 35.8136 2.5 24C2.5 12.1259 12.1259 2.5 24 2.5C35.8136 2.5 45.4017 12.0279 45.4993 23.8187C45.5061 24.6471 44.8401 25.3242 44.0117 25.3311C43.1833 25.3379 42.5062 24.6719 42.4994 23.8435C42.4154 13.6985 34.1651 5.5 24 5.5Z" fill="#4D3886"/>
</g>
</g>
</svg>
