<svg width="48" height="48" viewBox="0 0 48 48" fill="none" xmlns="http://www.w3.org/2000/svg">
<g id="Huge-icon/interface/bulk/layers">
<g id="layers">
<path id="Vector 2462" opacity="0.4" d="M22.3446 43.2476L6.0054 35.8207C4.44221 35.1102 4.44221 32.8898 6.0054 32.1792L22.3446 24.7523C23.3963 24.2743 24.6033 24.2743 25.655 24.7523L41.9942 32.1792C43.5574 32.8898 43.5574 35.1102 41.9942 35.8207L25.655 43.2476C24.6033 43.7256 23.3963 43.7256 22.3446 43.2476Z" fill="#4D3886"/>
<path id="Vector 2461" d="M22.3446 33.2476L6.0054 25.8207C4.44221 25.1102 4.44221 22.8898 6.0054 22.1792L22.3446 14.7523C23.3963 14.2743 24.6033 14.2743 25.655 14.7523L41.9942 22.1792C43.5574 22.8898 43.5574 25.1102 41.9942 25.8207L25.655 33.2476C24.6033 33.7256 23.3963 33.7256 22.3446 33.2476Z" fill="#4D3886"/>
<path id="Vector 2457" opacity="0.4" d="M22.3446 23.2476L6.0054 15.8207C4.44221 15.1102 4.44221 12.8898 6.0054 12.1792L22.3446 4.75233C23.3963 4.27429 24.6033 4.27429 25.655 4.75233L41.9942 12.1792C43.5574 12.8898 43.5574 15.1102 41.9942 15.8207L25.655 23.2476C24.6033 23.7256 23.3963 23.7256 22.3446 23.2476Z" fill="#4D3886"/>
</g>
</g>
</svg>
