<svg width="24" height="24" viewBox="0 0 24 24" fill="none" xmlns="http://www.w3.org/2000/svg">
<path d="M19.0714 3.75H4.92489C4.27667 3.75 3.75 4.28404 3.75 4.93962V19.0604C3.75 19.716 4.27667 20.25 4.92489 20.25H19.0714C19.7196 20.25 20.25 19.716 20.25 19.0604V4.93962C20.25 4.28404 19.7196 3.75 19.0714 3.75ZM8.73683 17.8929H6.29129V10.0185H8.74051V17.8929H8.73683ZM7.51406 8.94308C6.72958 8.94308 6.09609 8.30592 6.09609 7.52511C6.09609 6.74431 6.72958 6.10714 7.51406 6.10714C8.29487 6.10714 8.93203 6.74431 8.93203 7.52511C8.93203 8.3096 8.29855 8.94308 7.51406 8.94308ZM17.9039 17.8929H15.4584V14.0625C15.4584 13.1491 15.44 11.9742 14.1877 11.9742C12.9134 11.9742 12.7182 12.9686 12.7182 13.9962V17.8929H10.2727V10.0185H12.6188V11.094H12.6519C12.9797 10.4752 13.7789 9.82333 14.9685 9.82333C17.4435 9.82333 17.9039 11.4549 17.9039 13.5763V17.8929Z" fill="#2867B2"/>
</svg>
