<svg width="48" height="48" viewBox="0 0 48 48" fill="none" xmlns="http://www.w3.org/2000/svg">
<g id="Huge-icon/education/bulk/medal">
<g id="medal">
<g id="Vector 2953" opacity="0.4">
<path d="M34 7.99976V18.9998H14V7.99976C14 5.79062 15.7909 3.99976 18 3.99976H30C32.2091 3.99976 34 5.79062 34 7.99976Z" fill="#4D3886"/>
</g>
<path id="Subtract" fill-rule="evenodd" clip-rule="evenodd" d="M24 43.9995C32.8366 43.9995 40 36.8361 40 27.9995C40 19.163 32.8366 11.9995 24 11.9995C15.1634 11.9995 8 19.163 8 27.9995C8 36.8361 15.1634 43.9995 24 43.9995ZM25.5737 21.0166C24.93 19.6604 23.07 19.6604 22.4262 21.0166L21.3137 23.3604C21.058 23.899 20.5639 24.2722 19.9923 24.3586L17.5045 24.7344C16.065 24.9519 15.4903 26.7911 16.5319 27.8468L18.332 29.6712C18.7457 30.0904 18.9344 30.6943 18.8368 31.2862L18.4118 33.8623C18.1659 35.3529 19.6707 36.4896 20.9582 35.7858L23.1833 34.5696C23.6946 34.2901 24.3054 34.2901 24.8166 34.5696L27.0418 35.7858C28.3293 36.4896 29.834 35.3529 29.5881 33.8623L29.1632 31.2862C29.0655 30.6943 29.2543 30.0904 29.6679 29.6712L31.4681 27.8468C32.5097 26.7911 31.9349 24.9519 30.4954 24.7344L28.0077 24.3586C27.4361 24.2722 26.9419 23.899 26.6863 23.3604L25.5737 21.0166Z" fill="#4D3886"/>
</g>
</g>
</svg>
