<svg width="487" height="252" viewBox="0 0 487 252" fill="none" xmlns="http://www.w3.org/2000/svg">
<path d="M44.712 221.44L52.632 229.576C50.328 232.408 47.304 234.712 43.56 236.488C39.864 238.264 35.784 239.152 31.32 239.152C27.144 239.152 23.352 238.504 19.944 237.208C16.536 235.864 13.584 233.992 11.088 231.592C8.64 229.192 6.744 226.36 5.4 223.096C4.056 219.784 3.384 216.16 3.384 212.224C3.384 208.336 4.08 204.76 5.472 201.496C6.864 198.184 8.808 195.328 11.304 192.928C13.848 190.528 16.824 188.68 20.232 187.384C23.688 186.04 27.48 185.368 31.608 185.368C36.072 185.368 40.104 186.256 43.704 188.032C47.352 189.808 50.328 192.112 52.632 194.944L44.712 203.08C43.224 200.968 41.328 199.312 39.024 198.112C36.768 196.864 34.296 196.24 31.608 196.24C28.728 196.24 26.136 196.936 23.832 198.328C21.576 199.672 19.8 201.544 18.504 203.944C17.208 206.344 16.56 209.104 16.56 212.224C16.56 215.344 17.208 218.128 18.504 220.576C19.8 222.976 21.576 224.872 23.832 226.264C26.136 227.608 28.728 228.28 31.608 228.28C34.296 228.28 36.768 227.656 39.024 226.408C41.328 225.16 43.224 223.504 44.712 221.44ZM76.7672 239.152C72.6392 239.152 68.9912 238.336 65.8232 236.704C62.7032 235.024 60.2552 232.72 58.4792 229.792C56.7512 226.816 55.8872 223.432 55.8872 219.64C55.8872 215.8 56.7512 212.416 58.4792 209.488C60.2552 206.56 62.7032 204.28 65.8232 202.648C68.9912 200.968 72.6392 200.128 76.7672 200.128C80.8952 200.128 84.5192 200.968 87.6392 202.648C90.8072 204.28 93.2552 206.56 94.9832 209.488C96.7592 212.416 97.6472 215.776 97.6472 219.568C97.6472 223.408 96.7592 226.816 94.9832 229.792C93.2552 232.72 90.8072 235.024 87.6392 236.704C84.5192 238.336 80.8952 239.152 76.7672 239.152ZM76.7672 229.216C78.4472 229.216 79.9112 228.808 81.1592 227.992C82.4072 227.176 83.3672 226.048 84.0392 224.608C84.7592 223.168 85.1192 221.512 85.1192 219.64C85.1192 217.768 84.7592 216.112 84.0392 214.672C83.3672 213.232 82.4072 212.104 81.1592 211.288C79.9112 210.472 78.4472 210.064 76.7672 210.064C75.1352 210.064 73.6712 210.472 72.3752 211.288C71.1272 212.104 70.1432 213.232 69.4232 214.672C68.7512 216.112 68.4152 217.768 68.4152 219.64C68.4152 221.512 68.7512 223.168 69.4232 224.608C70.1432 226.048 71.1272 227.176 72.3752 227.992C73.6712 228.808 75.1352 229.216 76.7672 229.216ZM162.835 238H150.667V216.328C150.667 214.216 150.235 212.656 149.371 211.648C148.507 210.592 147.307 210.064 145.771 210.064C144.667 210.064 143.635 210.376 142.675 211C141.715 211.576 140.923 212.512 140.299 213.808C139.723 215.104 139.435 216.784 139.435 218.848V238H127.267V216.328C127.267 214.216 126.835 212.656 125.971 211.648C125.107 210.592 123.907 210.064 122.371 210.064C121.267 210.064 120.235 210.376 119.275 211C118.315 211.576 117.523 212.512 116.899 213.808C116.323 215.104 116.035 216.784 116.035 218.848V238H103.867V201.28H115.963V208.408L115.459 208.336C116.131 206.128 117.067 204.448 118.267 203.296C119.515 202.096 120.859 201.28 122.299 200.848C123.739 200.368 125.131 200.128 126.475 200.128C129.307 200.128 131.707 200.872 133.675 202.36C135.643 203.848 136.963 206.128 137.635 209.2H136.771C137.539 206.752 138.619 204.88 140.011 203.584C141.451 202.288 143.011 201.4 144.691 200.92C146.419 200.392 148.051 200.128 149.587 200.128C153.715 200.128 156.955 201.448 159.307 204.088C161.659 206.728 162.835 210.544 162.835 215.536V238ZM181.988 251.968H169.82V201.28H181.916V212.872H179.396C179.684 210.472 180.404 208.312 181.556 206.392C182.708 204.472 184.268 202.96 186.236 201.856C188.204 200.704 190.532 200.128 193.22 200.128C196.484 200.128 199.484 200.944 202.22 202.576C205.004 204.208 207.212 206.488 208.844 209.416C210.524 212.296 211.364 215.704 211.364 219.64C211.364 223.528 210.524 226.936 208.844 229.864C207.212 232.792 205.028 235.072 202.292 236.704C199.556 238.336 196.556 239.152 193.292 239.152C190.172 239.152 187.532 238.48 185.372 237.136C183.26 235.792 181.652 233.992 180.548 231.736C179.444 229.432 178.892 226.912 178.892 224.176L181.628 223.024C181.868 224.272 182.372 225.376 183.14 226.336C183.956 227.248 184.94 227.968 186.092 228.496C187.292 228.976 188.564 229.216 189.908 229.216C191.732 229.216 193.292 228.808 194.588 227.992C195.932 227.176 196.964 226.048 197.684 224.608C198.452 223.12 198.836 221.464 198.836 219.64C198.836 217.768 198.476 216.112 197.756 214.672C197.084 213.232 196.124 212.104 194.876 211.288C193.628 210.472 192.116 210.064 190.34 210.064C188.708 210.064 187.268 210.448 186.02 211.216C184.772 211.936 183.788 212.992 183.068 214.384C182.348 215.728 181.988 217.384 181.988 219.352V251.968ZM251.796 238H240.924V230.512L240.276 229.864V216.04C240.276 213.784 239.532 212.08 238.044 210.928C236.604 209.776 234.612 209.2 232.068 209.2C230.148 209.2 228.324 209.536 226.596 210.208C224.868 210.88 223.356 211.84 222.06 213.088L216.3 205.888C218.22 204.112 220.62 202.72 223.5 201.712C226.428 200.656 229.5 200.128 232.716 200.128C236.508 200.128 239.82 200.728 242.652 201.928C245.532 203.128 247.764 204.904 249.348 207.256C250.98 209.56 251.796 212.416 251.796 215.824V238ZM229.404 239.152C226.572 239.152 224.052 238.648 221.844 237.64C219.684 236.584 218.004 235.144 216.804 233.32C215.604 231.496 215.004 229.36 215.004 226.912C215.004 224.416 215.748 222.28 217.236 220.504C218.724 218.728 220.86 217.36 223.644 216.4C226.428 215.392 229.716 214.888 233.508 214.888H241.284V222.232H234.228C232.068 222.232 230.364 222.616 229.116 223.384C227.916 224.152 227.316 225.16 227.316 226.408C227.316 227.608 227.796 228.568 228.756 229.288C229.764 230.008 231.036 230.368 232.572 230.368C234.06 230.368 235.428 230.032 236.676 229.36C237.924 228.688 238.932 227.776 239.7 226.624C240.516 225.472 240.996 224.176 241.14 222.736L244.236 224.032C244.236 227.056 243.612 229.72 242.364 232.024C241.164 234.28 239.436 236.032 237.18 237.28C234.972 238.528 232.38 239.152 229.404 239.152ZM282.419 238H272.915C269.123 238 266.315 237.088 264.491 235.264C262.667 233.44 261.755 230.632 261.755 226.84V192.208H273.923V224.464C273.923 225.856 274.187 226.84 274.715 227.416C275.243 227.944 276.179 228.208 277.523 228.208H282.419V238ZM282.059 210.928H256.067V201.28H282.059V210.928ZM300.957 238H288.789V201.28H300.957V238ZM294.837 197.032C292.917 197.032 291.285 196.408 289.941 195.16C288.597 193.864 287.925 192.28 287.925 190.408C287.925 188.488 288.597 186.904 289.941 185.656C291.285 184.36 292.917 183.712 294.837 183.712C296.805 183.712 298.437 184.36 299.733 185.656C301.077 186.904 301.749 188.488 301.749 190.408C301.749 192.28 301.077 193.864 299.733 195.16C298.437 196.408 296.805 197.032 294.837 197.032ZM320.432 238H308.336V186.16H320.504V212.872H317.624C317.912 210.472 318.632 208.312 319.784 206.392C320.936 204.472 322.52 202.96 324.536 201.856C326.552 200.704 328.952 200.128 331.736 200.128C335 200.128 338 200.944 340.736 202.576C343.52 204.208 345.728 206.488 347.36 209.416C349.04 212.296 349.88 215.704 349.88 219.64C349.88 223.528 349.04 226.936 347.36 229.864C345.728 232.792 343.544 235.072 340.808 236.704C338.072 238.336 335.072 239.152 331.808 239.152C328.688 239.152 326.048 238.48 323.888 237.136C321.776 235.792 320.168 233.992 319.064 231.736C317.96 229.432 317.408 226.912 317.408 224.176L320.144 223.024C320.384 224.272 320.888 225.376 321.656 226.336C322.472 227.248 323.456 227.968 324.608 228.496C325.808 228.976 327.08 229.216 328.424 229.216C330.248 229.216 331.808 228.808 333.104 227.992C334.448 227.176 335.48 226.048 336.2 224.608C336.968 223.12 337.352 221.464 337.352 219.64C337.352 217.768 337.016 216.112 336.344 214.672C335.672 213.232 334.712 212.104 333.464 211.288C332.216 210.472 330.704 210.064 328.928 210.064C327.296 210.064 325.832 210.448 324.536 211.216C323.288 211.936 322.304 212.992 321.584 214.384C320.864 215.728 320.504 217.384 320.504 219.352V229.36L320.432 230.152V238ZM368.246 238H356.078V201.28H368.246V238ZM362.126 197.032C360.206 197.032 358.574 196.408 357.23 195.16C355.886 193.864 355.214 192.28 355.214 190.408C355.214 188.488 355.886 186.904 357.23 185.656C358.574 184.36 360.206 183.712 362.126 183.712C364.094 183.712 365.726 184.36 367.022 185.656C368.366 186.904 369.038 188.488 369.038 190.408C369.038 192.28 368.366 193.864 367.022 195.16C365.726 196.408 364.094 197.032 362.126 197.032ZM387.793 238H375.625V186.16H387.793V238ZM407.34 238H395.172V201.28H407.34V238ZM401.22 197.032C399.3 197.032 397.668 196.408 396.324 195.16C394.98 193.864 394.308 192.28 394.308 190.408C394.308 188.488 394.98 186.904 396.324 185.656C397.668 184.36 399.3 183.712 401.22 183.712C403.188 183.712 404.82 184.36 406.116 185.656C407.46 186.904 408.132 188.488 408.132 190.408C408.132 192.28 407.46 193.864 406.116 195.16C404.82 196.408 403.188 197.032 401.22 197.032ZM439.919 238H430.415C426.623 238 423.815 237.088 421.991 235.264C420.167 233.44 419.255 230.632 419.255 226.84V192.208H431.423V224.464C431.423 225.856 431.687 226.84 432.215 227.416C432.743 227.944 433.679 228.208 435.023 228.208H439.919V238ZM439.559 210.928H413.567V201.28H439.559V210.928ZM472.963 201.28H485.131L468.427 240.808C466.843 244.552 464.779 247.336 462.235 249.16C459.739 251.032 456.595 251.968 452.803 251.968H447.331V242.176H451.939C453.331 242.176 454.507 241.888 455.467 241.312C456.475 240.736 457.243 239.776 457.771 238.432L457.915 238L442.291 201.28H454.747L465.619 231.016H462.019L472.963 201.28Z" fill="#150136" fill-opacity="0.3"/>
<path d="M123.4 0.799999C134.6 0.799999 144.533 3.2 153.2 7.99999C161.867 12.8 168.6 19.4 173.4 27.8C178.333 36.0667 180.8 45.6667 180.8 56.6C180.8 68.8667 178.2 80.2 173 90.6C167.933 101 161.267 110.8 153 120C144.733 129.2 135.733 138.2 126 147H82C92.9333 137.933 102.2 129.933 109.8 123C117.533 115.933 123.933 109.533 129 103.8C134.067 98.0667 138 92.6 140.8 87.4L143.4 87.8C140.067 91.8 136.067 95 131.4 97.4C126.733 99.6667 121.333 100.8 115.2 100.8C105.2 100.8 96.4 98.7333 88.8 94.6C81.3333 90.4667 75.4667 84.8 71.2 77.6C67.0667 70.4 65 62.1333 65 52.8C65 42.4 67.5333 33.3333 72.6 25.6C77.6667 17.7333 84.6 11.6667 93.4 7.4C102.2 3 112.2 0.799999 123.4 0.799999ZM123.2 28.4C118.267 28.4 113.867 29.4667 110 31.6C106.267 33.6 103.333 36.3333 101.2 39.8C99.0667 43.2667 98 47.2667 98 51.8C98 56.2 99.0667 60.2 101.2 63.8C103.333 67.2667 106.267 70.0667 110 72.2C113.867 74.2 118.267 75.2 123.2 75.2C128.133 75.2 132.4 74.2 136 72.2C139.733 70.0667 142.667 67.2667 144.8 63.8C146.933 60.2 148 56.2 148 51.8C148 47.2667 146.933 43.2667 144.8 39.8C142.667 36.3333 139.733 33.6 136 31.6C132.4 29.4667 128.133 28.4 123.2 28.4ZM253.906 150.2C241.373 150.2 230.573 147.333 221.506 141.6C212.573 135.733 205.706 127.267 200.906 116.2C196.106 105 193.706 91.4667 193.706 75.6C193.706 51.6 199.04 33.1333 209.706 20.2C220.373 7.26667 235.106 0.799999 253.906 0.799999C272.706 0.799999 287.44 7.26667 298.106 20.2C308.773 33.1333 314.106 51.6 314.106 75.6C314.106 91.4667 311.706 105 306.906 116.2C302.106 127.267 295.173 135.733 286.106 141.6C277.173 147.333 266.44 150.2 253.906 150.2ZM253.906 122.6C261.906 122.6 268.106 118.733 272.506 111C277.04 103.133 279.306 91.3333 279.306 75.6C279.306 59.7333 277.04 47.9333 272.506 40.2C268.106 32.3333 261.906 28.4 253.906 28.4C245.906 28.4 239.64 32.3333 235.106 40.2C230.706 47.9333 228.506 59.7333 228.506 75.6C228.506 91.3333 230.706 103.133 235.106 111C239.64 118.733 245.906 122.6 253.906 122.6ZM367.938 147H334.938L438.138 3.99999H471.138L367.938 147ZM448.138 149.8C441.604 149.8 435.671 148.267 430.338 145.2C425.004 142.133 420.804 137.933 417.738 132.6C414.671 127.267 413.138 121.267 413.138 114.6C413.138 108.067 414.671 102.2 417.738 97C420.804 91.6667 425.004 87.4667 430.338 84.4C435.671 81.3333 441.604 79.8 448.138 79.8C454.804 79.8 460.738 81.3333 465.938 84.4C471.271 87.4667 475.471 91.6667 478.538 97C481.604 102.2 483.138 108.133 483.138 114.8C483.138 121.333 481.604 127.267 478.538 132.6C475.471 137.933 471.271 142.133 465.938 145.2C460.738 148.267 454.804 149.8 448.138 149.8ZM448.138 126.8C451.204 126.8 453.804 125.667 455.938 123.4C458.071 121 459.138 118.133 459.138 114.8C459.138 111.467 458.071 108.667 455.938 106.4C453.804 104 451.204 102.8 448.138 102.8C445.071 102.8 442.471 104 440.338 106.4C438.204 108.667 437.138 111.467 437.138 114.8C437.138 118.133 438.204 121 440.338 123.4C442.471 125.667 445.071 126.8 448.138 126.8ZM357.938 71.2C351.404 71.2 345.471 69.6667 340.138 66.6C334.804 63.5333 330.604 59.3333 327.538 54C324.471 48.6667 322.938 42.6667 322.938 36C322.938 29.4667 324.471 23.6 327.538 18.4C330.604 13.0667 334.804 8.86666 340.138 5.79999C345.471 2.73333 351.404 1.19999 357.938 1.19999C364.604 1.19999 370.538 2.73333 375.738 5.79999C381.071 8.86666 385.271 13.0667 388.338 18.4C391.404 23.6 392.938 29.5333 392.938 36.2C392.938 42.7333 391.404 48.6667 388.338 54C385.271 59.3333 381.071 63.5333 375.738 66.6C370.538 69.6667 364.604 71.2 357.938 71.2ZM357.938 48.2C361.004 48.2 363.604 47.0667 365.738 44.8C367.871 42.4 368.938 39.5333 368.938 36.2C368.938 32.8667 367.871 30.0667 365.738 27.8C363.604 25.4 361.004 24.2 357.938 24.2C354.871 24.2 352.271 25.4 350.138 27.8C348.004 30.0667 346.938 32.8667 346.938 36.2C346.938 39.5333 348.004 42.4 350.138 44.8C352.271 47.0667 354.871 48.2 357.938 48.2Z" fill="#150136" fill-opacity="0.3"/>
</svg>
