<svg width="462" height="254" viewBox="0 0 462 254" fill="none" xmlns="http://www.w3.org/2000/svg">
<path d="M30.024 238H17.64V196.24H30.024V238ZM45.504 196.96H2.16V186.52H45.504V196.96ZM89.5011 221.44L97.4211 229.576C95.1171 232.408 92.0931 234.712 88.3491 236.488C84.6531 238.264 80.5731 239.152 76.1091 239.152C71.9331 239.152 68.1411 238.504 64.7331 237.208C61.3251 235.864 58.3731 233.992 55.8771 231.592C53.4291 229.192 51.5331 226.36 50.1891 223.096C48.8451 219.784 48.1731 216.16 48.1731 212.224C48.1731 208.336 48.8691 204.76 50.2611 201.496C51.6531 198.184 53.5971 195.328 56.0931 192.928C58.6371 190.528 61.6131 188.68 65.0211 187.384C68.4771 186.04 72.2691 185.368 76.3971 185.368C80.8611 185.368 84.8931 186.256 88.4931 188.032C92.1411 189.808 95.1171 192.112 97.4211 194.944L89.5011 203.08C88.0131 200.968 86.1171 199.312 83.8131 198.112C81.5571 196.864 79.0851 196.24 76.3971 196.24C73.5171 196.24 70.9251 196.936 68.6211 198.328C66.3651 199.672 64.5891 201.544 63.2931 203.944C61.9971 206.344 61.3491 209.104 61.3491 212.224C61.3491 215.344 61.9971 218.128 63.2931 220.576C64.5891 222.976 66.3651 224.872 68.6211 226.264C70.9251 227.608 73.5171 228.28 76.3971 228.28C79.0851 228.28 81.5571 227.656 83.8131 226.408C86.1171 225.16 88.0131 223.504 89.5011 221.44ZM128.072 239.152C123.992 239.152 120.248 238.48 116.84 237.136C113.432 235.792 110.456 233.92 107.912 231.52C105.416 229.12 103.472 226.288 102.08 223.024C100.736 219.712 100.064 216.112 100.064 212.224C100.064 208.336 100.736 204.76 102.08 201.496C103.472 198.232 105.416 195.4 107.912 193C110.456 190.6 113.432 188.728 116.84 187.384C120.248 186.04 123.992 185.368 128.072 185.368C132.152 185.368 135.896 186.04 139.304 187.384C142.712 188.728 145.664 190.6 148.16 193C150.704 195.4 152.648 198.232 153.992 201.496C155.384 204.76 156.08 208.336 156.08 212.224C156.08 216.112 155.384 219.712 153.992 223.024C152.648 226.288 150.704 229.12 148.16 231.52C145.664 233.92 142.712 235.792 139.304 237.136C135.896 238.48 132.152 239.152 128.072 239.152ZM128.072 228.28C131.048 228.28 133.64 227.608 135.848 226.264C138.104 224.872 139.856 222.976 141.104 220.576C142.4 218.128 143.048 215.344 143.048 212.224C143.048 209.104 142.4 206.344 141.104 203.944C139.856 201.544 138.104 199.672 135.848 198.328C133.64 196.936 131.048 196.24 128.072 196.24C125.144 196.24 122.552 196.936 120.296 198.328C118.04 199.672 116.264 201.544 114.968 203.944C113.72 206.344 113.096 209.104 113.096 212.224C113.096 215.344 113.72 218.128 114.968 220.576C116.264 222.976 118.04 224.872 120.296 226.264C122.552 227.608 125.144 228.28 128.072 228.28ZM175.403 229.504L183.539 221.296C184.643 222.784 186.059 224.08 187.787 225.184C189.563 226.288 191.459 227.128 193.475 227.704C195.491 228.28 197.483 228.568 199.451 228.568C201.515 228.568 203.243 228.376 204.635 227.992C206.075 227.56 207.155 226.984 207.875 226.264C208.595 225.496 208.955 224.608 208.955 223.6C208.955 222.16 208.163 220.96 206.579 220C204.995 218.992 202.043 218.176 197.723 217.552C193.115 216.88 189.323 215.872 186.347 214.528C183.371 213.136 181.163 211.408 179.723 209.344C178.283 207.232 177.563 204.76 177.563 201.928C177.563 198.712 178.475 195.856 180.299 193.36C182.123 190.864 184.619 188.92 187.787 187.528C191.003 186.088 194.651 185.368 198.731 185.368C203.579 185.368 207.875 186.256 211.619 188.032C215.411 189.808 218.555 192.112 221.051 194.944L212.987 203.152C211.355 200.896 209.243 199.12 206.651 197.824C204.107 196.528 201.515 195.88 198.875 195.88C196.283 195.88 194.171 196.36 192.539 197.32C190.907 198.28 190.091 199.528 190.091 201.064C190.091 201.928 190.403 202.672 191.027 203.296C191.699 203.92 192.851 204.472 194.483 204.952C196.115 205.384 198.371 205.84 201.251 206.32C205.715 206.992 209.435 208.048 212.411 209.488C215.435 210.928 217.691 212.752 219.179 214.96C220.715 217.168 221.483 219.784 221.483 222.808C221.483 226.168 220.523 229.072 218.603 231.52C216.683 233.968 214.043 235.864 210.683 237.208C207.371 238.504 203.531 239.152 199.163 239.152C193.979 239.152 189.347 238.264 185.267 236.488C181.235 234.664 177.947 232.336 175.403 229.504ZM264.031 238H253.159V230.512L252.511 229.864V216.04C252.511 213.784 251.767 212.08 250.279 210.928C248.839 209.776 246.847 209.2 244.303 209.2C242.383 209.2 240.559 209.536 238.831 210.208C237.103 210.88 235.591 211.84 234.295 213.088L228.535 205.888C230.455 204.112 232.855 202.72 235.735 201.712C238.663 200.656 241.735 200.128 244.951 200.128C248.743 200.128 252.055 200.728 254.887 201.928C257.767 203.128 259.999 204.904 261.583 207.256C263.215 209.56 264.031 212.416 264.031 215.824V238ZM241.639 239.152C238.807 239.152 236.287 238.648 234.079 237.64C231.919 236.584 230.239 235.144 229.039 233.32C227.839 231.496 227.239 229.36 227.239 226.912C227.239 224.416 227.983 222.28 229.471 220.504C230.959 218.728 233.095 217.36 235.879 216.4C238.663 215.392 241.951 214.888 245.743 214.888H253.519V222.232H246.463C244.303 222.232 242.599 222.616 241.351 223.384C240.151 224.152 239.551 225.16 239.551 226.408C239.551 227.608 240.031 228.568 240.991 229.288C241.999 230.008 243.271 230.368 244.807 230.368C246.295 230.368 247.663 230.032 248.911 229.36C250.159 228.688 251.167 227.776 251.935 226.624C252.751 225.472 253.231 224.176 253.375 222.736L256.471 224.032C256.471 227.056 255.847 229.72 254.599 232.024C253.399 234.28 251.671 236.032 249.415 237.28C247.207 238.528 244.615 239.152 241.639 239.152ZM293.376 238H281.64L266.088 201.28H278.544L288.696 229.072H286.536L296.76 201.28H308.928L293.376 238ZM325.848 238H313.68V201.28H325.848V238ZM319.728 197.032C317.808 197.032 316.176 196.408 314.832 195.16C313.488 193.864 312.816 192.28 312.816 190.408C312.816 188.488 313.488 186.904 314.832 185.656C316.176 184.36 317.808 183.712 319.728 183.712C321.696 183.712 323.328 184.36 324.624 185.656C325.968 186.904 326.64 188.488 326.64 190.408C326.64 192.28 325.968 193.864 324.624 195.16C323.328 196.408 321.696 197.032 319.728 197.032ZM370.235 238H358.067V216.76C358.067 214.504 357.563 212.824 356.555 211.72C355.547 210.616 354.179 210.064 352.451 210.064C351.251 210.064 350.099 210.4 348.995 211.072C347.939 211.696 347.075 212.68 346.403 214.024C345.731 215.368 345.395 217.144 345.395 219.352V238H333.227V201.28H345.323V212.872H343.955C344.291 209.416 345.131 206.776 346.475 204.952C347.819 203.128 349.379 201.88 351.155 201.208C352.979 200.488 354.707 200.128 356.339 200.128C360.611 200.128 363.995 201.448 366.491 204.088C368.987 206.728 370.235 210.544 370.235 215.536V238ZM417.634 232.672C417.634 236.896 416.698 240.52 414.826 243.544C412.954 246.616 410.338 248.968 406.978 250.6C403.618 252.28 399.706 253.12 395.242 253.12C391.786 253.12 388.498 252.616 385.378 251.608C382.258 250.648 379.666 249.28 377.602 247.504L383.722 239.368C385.258 240.664 386.914 241.648 388.69 242.32C390.466 242.992 392.386 243.328 394.45 243.328C396.802 243.328 398.794 242.944 400.426 242.176C402.058 241.456 403.306 240.352 404.17 238.864C405.034 237.424 405.466 235.624 405.466 233.464V219.352C405.466 217.384 405.106 215.728 404.386 214.384C403.666 212.992 402.682 211.936 401.434 211.216C400.186 210.448 398.746 210.064 397.114 210.064C395.386 210.064 393.874 210.472 392.578 211.288C391.33 212.104 390.346 213.208 389.626 214.6C388.954 215.944 388.618 217.456 388.618 219.136C388.618 220.864 388.978 222.4 389.698 223.744C390.466 225.088 391.522 226.144 392.866 226.912C394.21 227.68 395.77 228.064 397.546 228.064C398.938 228.064 400.21 227.824 401.362 227.344C402.514 226.816 403.474 226.096 404.242 225.184C405.058 224.224 405.586 223.12 405.826 221.872L408.562 223.024C408.562 225.76 408.01 228.28 406.906 230.584C405.802 232.84 404.17 234.64 402.01 235.984C399.898 237.328 397.282 238 394.162 238C390.946 238 387.946 237.232 385.162 235.696C382.426 234.112 380.218 231.904 378.538 229.072C376.906 226.24 376.09 222.952 376.09 219.208C376.09 215.416 376.906 212.104 378.538 209.272C380.218 206.392 382.426 204.16 385.162 202.576C387.946 200.944 390.97 200.128 394.234 200.128C397.018 200.128 399.37 200.68 401.29 201.784C403.258 202.888 404.818 204.4 405.97 206.32C407.122 208.24 407.818 210.424 408.058 212.872H405.538V201.28H417.634V232.672ZM422.753 232.6L428.873 225.256C430.457 226.84 432.449 228.088 434.849 229C437.249 229.912 439.553 230.368 441.761 230.368C443.585 230.368 444.977 230.104 445.937 229.576C446.945 229 447.449 228.328 447.449 227.56C447.449 226.648 446.969 226 446.009 225.616C445.049 225.184 443.153 224.776 440.32 224.392C435.137 223.672 431.225 222.424 428.585 220.648C425.945 218.824 424.625 216.256 424.625 212.944C424.625 210.4 425.345 208.168 426.785 206.248C428.225 204.328 430.193 202.84 432.689 201.784C435.185 200.68 438.017 200.128 441.185 200.128C445.025 200.128 448.409 200.704 451.337 201.856C454.313 203.008 456.785 204.448 458.753 206.176L452.633 213.592C451.145 212.2 449.393 211.072 447.377 210.208C445.409 209.344 443.369 208.912 441.257 208.912C439.625 208.912 438.353 209.2 437.441 209.776C436.529 210.304 436.073 210.928 436.073 211.648C436.073 212.464 436.577 213.04 437.585 213.376C438.641 213.712 440.513 214.072 443.201 214.456C448.145 215.224 452.009 216.52 454.793 218.344C457.577 220.168 458.969 222.856 458.969 226.408C458.969 229 458.225 231.256 456.737 233.176C455.249 235.096 453.161 236.584 450.473 237.64C447.785 238.648 444.641 239.152 441.041 239.152C437.393 239.152 433.937 238.552 430.673 237.352C427.457 236.152 424.817 234.568 422.753 232.6Z" fill="#150136" fill-opacity="0.3"/>
<path d="M64.4 0.799999C75.6 0.799999 85.5333 3.2 94.2 7.99999C102.867 12.8 109.6 19.4 114.4 27.8C119.333 36.0667 121.8 45.6667 121.8 56.6C121.8 68.8667 119.2 80.2 114 90.6C108.933 101 102.267 110.8 94 120C85.7333 129.2 76.7333 138.2 67 147H23C33.9333 137.933 43.2 129.933 50.8 123C58.5333 115.933 64.9333 109.533 70 103.8C75.0667 98.0667 79 92.6 81.8 87.4L84.4 87.8C81.0667 91.8 77.0667 95 72.4 97.4C67.7333 99.6667 62.3333 100.8 56.2 100.8C46.2 100.8 37.4 98.7333 29.8 94.6C22.3333 90.4667 16.4667 84.8 12.2 77.6C8.06667 70.4 6 62.1333 6 52.8C6 42.4 8.53333 33.3333 13.6 25.6C18.6667 17.7333 25.6 11.6667 34.4 7.4C43.2 3 53.2 0.799999 64.4 0.799999ZM64.2 28.4C59.2667 28.4 54.8667 29.4667 51 31.6C47.2667 33.6 44.3333 36.3333 42.2 39.8C40.0667 43.2667 39 47.2667 39 51.8C39 56.2 40.0667 60.2 42.2 63.8C44.3333 67.2667 47.2667 70.0667 51 72.2C54.8667 74.2 59.2667 75.2 64.2 75.2C69.1333 75.2 73.4 74.2 77 72.2C80.7333 70.0667 83.6667 67.2667 85.8 63.8C87.9333 60.2 89 56.2 89 51.8C89 47.2667 87.9333 43.2667 85.8 39.8C83.6667 36.3333 80.7333 33.6 77 31.6C73.4 29.4667 69.1333 28.4 64.2 28.4ZM156.306 103.6C160.573 109.333 165.44 113.8 170.906 117C176.506 120.2 182.773 121.8 189.706 121.8C194.373 121.8 198.506 120.8 202.106 118.8C205.84 116.667 208.773 113.8 210.906 110.2C213.04 106.6 214.106 102.533 214.106 98C214.106 93.4667 213.106 89.5333 211.106 86.2C209.24 82.7333 206.573 80.0667 203.106 78.2C199.64 76.2 195.64 75.2 191.106 75.2C186.44 75.2 182.173 76.2 178.306 78.2C174.44 80.0667 171.106 82.9333 168.306 86.8L157.506 86.2C158.44 79 160.64 72.5333 164.106 66.8C167.573 61.0667 172.24 56.5333 178.106 53.2C184.106 49.8667 191.106 48.2 199.106 48.2C208.706 48.2 217.173 50.3333 224.506 54.6C231.84 58.8667 237.506 64.7333 241.506 72.2C245.64 79.6667 247.706 88.2667 247.706 98C247.706 108.267 245.173 117.333 240.106 125.2C235.173 133.067 228.44 139.2 219.906 143.6C211.373 148 201.773 150.2 191.106 150.2C179.773 150.2 169.373 148.2 159.906 144.2C150.44 140.2 141.973 133.933 134.506 125.4L156.306 103.6ZM240.506 31.2H161.106L177.706 11.8L168.306 86.8H139.306L149.706 3.99999H240.506V31.2ZM302.297 147H269.297L372.497 3.99999H405.497L302.297 147ZM382.497 149.8C375.964 149.8 370.03 148.267 364.697 145.2C359.364 142.133 355.164 137.933 352.097 132.6C349.03 127.267 347.497 121.267 347.497 114.6C347.497 108.067 349.03 102.2 352.097 97C355.164 91.6667 359.364 87.4667 364.697 84.4C370.03 81.3333 375.964 79.8 382.497 79.8C389.164 79.8 395.097 81.3333 400.297 84.4C405.63 87.4667 409.83 91.6667 412.897 97C415.964 102.2 417.497 108.133 417.497 114.8C417.497 121.333 415.964 127.267 412.897 132.6C409.83 137.933 405.63 142.133 400.297 145.2C395.097 148.267 389.164 149.8 382.497 149.8ZM382.497 126.8C385.564 126.8 388.164 125.667 390.297 123.4C392.43 121 393.497 118.133 393.497 114.8C393.497 111.467 392.43 108.667 390.297 106.4C388.164 104 385.564 102.8 382.497 102.8C379.43 102.8 376.83 104 374.697 106.4C372.564 108.667 371.497 111.467 371.497 114.8C371.497 118.133 372.564 121 374.697 123.4C376.83 125.667 379.43 126.8 382.497 126.8ZM292.297 71.2C285.764 71.2 279.83 69.6667 274.497 66.6C269.164 63.5333 264.964 59.3333 261.897 54C258.83 48.6667 257.297 42.6667 257.297 36C257.297 29.4667 258.83 23.6 261.897 18.4C264.964 13.0667 269.164 8.86666 274.497 5.79999C279.83 2.73333 285.764 1.19999 292.297 1.19999C298.964 1.19999 304.897 2.73333 310.097 5.79999C315.43 8.86666 319.63 13.0667 322.697 18.4C325.764 23.6 327.297 29.5333 327.297 36.2C327.297 42.7333 325.764 48.6667 322.697 54C319.63 59.3333 315.43 63.5333 310.097 66.6C304.897 69.6667 298.964 71.2 292.297 71.2ZM292.297 48.2C295.364 48.2 297.964 47.0667 300.097 44.8C302.23 42.4 303.297 39.5333 303.297 36.2C303.297 32.8667 302.23 30.0667 300.097 27.8C297.964 25.4 295.364 24.2 292.297 24.2C289.23 24.2 286.63 25.4 284.497 27.8C282.364 30.0667 281.297 32.8667 281.297 36.2C281.297 39.5333 282.364 42.4 284.497 44.8C286.63 47.0667 289.23 48.2 292.297 48.2Z" fill="#150136" fill-opacity="0.3"/>
</svg>
