<svg width="482" height="252" viewBox="0 0 482 252" fill="none" xmlns="http://www.w3.org/2000/svg">
<path d="M30.024 238H17.64V196.24H30.024V238ZM45.504 196.96H2.16V186.52H45.504V196.96ZM73.3292 225.904L79.2332 233.176C77.4092 235.048 74.9852 236.512 71.9612 237.568C68.9852 238.624 65.7692 239.152 62.3132 239.152C57.8492 239.152 53.9612 238.336 50.6492 236.704C47.3372 235.072 44.7452 232.792 42.8732 229.864C41.0492 226.936 40.1372 223.552 40.1372 219.712C40.1372 215.824 41.0252 212.416 42.8012 209.488C44.5772 206.512 46.9772 204.208 50.0012 202.576C53.0732 200.944 56.4812 200.128 60.2252 200.128C63.9212 200.128 67.2092 200.944 70.0892 202.576C72.9692 204.16 75.2252 206.392 76.8572 209.272C78.4892 212.104 79.3052 215.416 79.3052 219.208V219.64H67.4972V218.344C67.4972 216.472 67.2092 214.864 66.6332 213.52C66.0572 212.176 65.2172 211.144 64.1132 210.424C63.0572 209.656 61.7372 209.272 60.1532 209.272C58.6172 209.272 57.2492 209.68 56.0492 210.496C54.8972 211.264 53.9852 212.392 53.3132 213.88C52.6412 215.368 52.3052 217.216 52.3052 219.424C52.3052 221.776 52.7612 223.744 53.6732 225.328C54.5852 226.864 55.8572 228.016 57.4892 228.784C59.1212 229.552 60.9932 229.936 63.1052 229.936C66.9932 229.936 70.4012 228.592 73.3292 225.904ZM79.3052 223.168H47.4092V216.112H78.0812L79.3052 219.28V223.168ZM114.384 224.248L121.656 231.52C119.592 233.968 117.168 235.864 114.384 237.208C111.648 238.504 108.456 239.152 104.808 239.152C100.968 239.152 97.5124 238.312 94.4404 236.632C91.3684 234.952 88.9444 232.648 87.1684 229.72C85.3924 226.792 84.5044 223.432 84.5044 219.64C84.5044 215.848 85.3924 212.488 87.1684 209.56C88.9924 206.632 91.4644 204.328 94.5844 202.648C97.7044 200.968 101.208 200.128 105.096 200.128C108.6 200.128 111.72 200.776 114.456 202.072C117.24 203.368 119.64 205.24 121.656 207.688L114.384 214.96C113.472 213.568 112.296 212.416 110.856 211.504C109.416 210.544 107.784 210.064 105.96 210.064C104.28 210.064 102.768 210.496 101.424 211.36C100.08 212.176 99.0004 213.304 98.1844 214.744C97.4164 216.184 97.0324 217.816 97.0324 219.64C97.0324 221.464 97.4164 223.096 98.1844 224.536C99.0004 225.976 100.08 227.128 101.424 227.992C102.768 228.808 104.28 229.216 105.96 229.216C107.832 229.216 109.464 228.76 110.856 227.848C112.296 226.888 113.472 225.688 114.384 224.248ZM164.5 238H152.332V216.76C152.332 214.504 151.828 212.824 150.82 211.72C149.812 210.616 148.444 210.064 146.716 210.064C145.516 210.064 144.364 210.4 143.26 211.072C142.204 211.696 141.34 212.68 140.668 214.024C139.996 215.368 139.66 217.144 139.66 219.352V238H127.492V186.16H139.66V212.872H138.22C138.556 209.416 139.396 206.776 140.74 204.952C142.084 203.128 143.644 201.88 145.42 201.208C147.244 200.488 148.972 200.128 150.604 200.128C154.876 200.128 158.26 201.448 160.756 204.088C163.252 206.728 164.5 210.544 164.5 215.536V238ZM183.77 229.504L191.906 221.296C193.01 222.784 194.426 224.08 196.154 225.184C197.93 226.288 199.826 227.128 201.842 227.704C203.858 228.28 205.85 228.568 207.818 228.568C209.882 228.568 211.61 228.376 213.002 227.992C214.442 227.56 215.522 226.984 216.242 226.264C216.962 225.496 217.322 224.608 217.322 223.6C217.322 222.16 216.53 220.96 214.946 220C213.362 218.992 210.41 218.176 206.09 217.552C201.482 216.88 197.69 215.872 194.714 214.528C191.738 213.136 189.53 211.408 188.09 209.344C186.65 207.232 185.93 204.76 185.93 201.928C185.93 198.712 186.842 195.856 188.666 193.36C190.49 190.864 192.986 188.92 196.154 187.528C199.37 186.088 203.018 185.368 207.098 185.368C211.946 185.368 216.242 186.256 219.986 188.032C223.778 189.808 226.922 192.112 229.418 194.944L221.354 203.152C219.722 200.896 217.61 199.12 215.018 197.824C212.474 196.528 209.882 195.88 207.242 195.88C204.65 195.88 202.538 196.36 200.906 197.32C199.274 198.28 198.458 199.528 198.458 201.064C198.458 201.928 198.77 202.672 199.394 203.296C200.066 203.92 201.218 204.472 202.85 204.952C204.482 205.384 206.738 205.84 209.618 206.32C214.082 206.992 217.802 208.048 220.778 209.488C223.802 210.928 226.058 212.752 227.546 214.96C229.082 217.168 229.85 219.784 229.85 222.808C229.85 226.168 228.89 229.072 226.97 231.52C225.05 233.968 222.41 235.864 219.05 237.208C215.738 238.504 211.898 239.152 207.53 239.152C202.346 239.152 197.714 238.264 193.634 236.488C189.602 234.664 186.314 232.336 183.77 229.504ZM273.262 238H261.166V231.088L261.094 229.072V201.28H273.262V238ZM261.454 223.024L263.902 224.176C263.902 227.2 263.35 229.84 262.246 232.096C261.142 234.304 259.558 236.032 257.494 237.28C255.43 238.528 252.982 239.152 250.15 239.152C245.926 239.152 242.566 237.904 240.07 235.408C237.622 232.864 236.398 229.192 236.398 224.392V201.28H248.566V223.168C248.566 225.184 249.07 226.696 250.078 227.704C251.086 228.712 252.406 229.216 254.038 229.216C255.286 229.216 256.414 228.952 257.422 228.424C258.478 227.896 259.366 227.176 260.086 226.264C260.806 225.304 261.262 224.224 261.454 223.024ZM292.801 251.968H280.633V201.28H292.729V212.872H290.209C290.497 210.472 291.217 208.312 292.369 206.392C293.521 204.472 295.081 202.96 297.049 201.856C299.017 200.704 301.345 200.128 304.033 200.128C307.297 200.128 310.297 200.944 313.033 202.576C315.817 204.208 318.025 206.488 319.657 209.416C321.337 212.296 322.177 215.704 322.177 219.64C322.177 223.528 321.337 226.936 319.657 229.864C318.025 232.792 315.841 235.072 313.105 236.704C310.369 238.336 307.369 239.152 304.105 239.152C300.985 239.152 298.345 238.48 296.185 237.136C294.073 235.792 292.465 233.992 291.361 231.736C290.257 229.432 289.705 226.912 289.705 224.176L292.441 223.024C292.681 224.272 293.185 225.376 293.953 226.336C294.769 227.248 295.753 227.968 296.905 228.496C298.105 228.976 299.377 229.216 300.721 229.216C302.545 229.216 304.105 228.808 305.401 227.992C306.745 227.176 307.777 226.048 308.497 224.608C309.265 223.12 309.649 221.464 309.649 219.64C309.649 217.768 309.289 216.112 308.569 214.672C307.897 213.232 306.937 212.104 305.689 211.288C304.441 210.472 302.929 210.064 301.153 210.064C299.521 210.064 298.081 210.448 296.833 211.216C295.585 211.936 294.601 212.992 293.881 214.384C293.161 215.728 292.801 217.384 292.801 219.352V251.968ZM340.543 251.968H328.375V201.28H340.471V212.872H337.951C338.239 210.472 338.959 208.312 340.111 206.392C341.263 204.472 342.823 202.96 344.791 201.856C346.759 200.704 349.087 200.128 351.775 200.128C355.039 200.128 358.039 200.944 360.775 202.576C363.559 204.208 365.767 206.488 367.399 209.416C369.079 212.296 369.919 215.704 369.919 219.64C369.919 223.528 369.079 226.936 367.399 229.864C365.767 232.792 363.583 235.072 360.847 236.704C358.111 238.336 355.111 239.152 351.847 239.152C348.727 239.152 346.087 238.48 343.927 237.136C341.815 235.792 340.207 233.992 339.103 231.736C337.999 229.432 337.447 226.912 337.447 224.176L340.183 223.024C340.423 224.272 340.927 225.376 341.695 226.336C342.511 227.248 343.495 227.968 344.647 228.496C345.847 228.976 347.119 229.216 348.463 229.216C350.287 229.216 351.847 228.808 353.143 227.992C354.487 227.176 355.519 226.048 356.239 224.608C357.007 223.12 357.391 221.464 357.391 219.64C357.391 217.768 357.031 216.112 356.311 214.672C355.639 213.232 354.679 212.104 353.431 211.288C352.183 210.472 350.671 210.064 348.895 210.064C347.263 210.064 345.823 210.448 344.575 211.216C343.327 211.936 342.343 212.992 341.623 214.384C340.903 215.728 340.543 217.384 340.543 219.352V251.968ZM395.845 239.152C391.717 239.152 388.069 238.336 384.901 236.704C381.781 235.024 379.333 232.72 377.557 229.792C375.829 226.816 374.965 223.432 374.965 219.64C374.965 215.8 375.829 212.416 377.557 209.488C379.333 206.56 381.781 204.28 384.901 202.648C388.069 200.968 391.717 200.128 395.845 200.128C399.973 200.128 403.597 200.968 406.717 202.648C409.885 204.28 412.333 206.56 414.061 209.488C415.837 212.416 416.725 215.776 416.725 219.568C416.725 223.408 415.837 226.816 414.061 229.792C412.333 232.72 409.885 235.024 406.717 236.704C403.597 238.336 399.973 239.152 395.845 239.152ZM395.845 229.216C397.525 229.216 398.989 228.808 400.237 227.992C401.485 227.176 402.445 226.048 403.117 224.608C403.837 223.168 404.197 221.512 404.197 219.64C404.197 217.768 403.837 216.112 403.117 214.672C402.445 213.232 401.485 212.104 400.237 211.288C398.989 210.472 397.525 210.064 395.845 210.064C394.213 210.064 392.749 210.472 391.453 211.288C390.205 212.104 389.221 213.232 388.501 214.672C387.829 216.112 387.493 217.768 387.493 219.64C387.493 221.512 387.829 223.168 388.501 224.608C389.221 226.048 390.205 227.176 391.453 227.992C392.749 228.808 394.213 229.216 395.845 229.216ZM447.713 200.632V211.432H445.409C443.105 211.432 441.185 211.816 439.649 212.584C438.161 213.304 437.033 214.456 436.265 216.04C435.497 217.576 435.113 219.616 435.113 222.16V238H422.945V201.28H435.041V213.376H433.673C434.009 209.92 434.849 207.28 436.193 205.456C437.537 203.632 439.097 202.384 440.873 201.712C442.697 200.992 444.425 200.632 446.057 200.632H447.713ZM478.31 238H468.806C465.014 238 462.206 237.088 460.382 235.264C458.558 233.44 457.646 230.632 457.646 226.84V192.208H469.814V224.464C469.814 225.856 470.078 226.84 470.605 227.416C471.134 227.944 472.07 228.208 473.414 228.208H478.31V238ZM477.95 210.928H451.958V201.28H477.95V210.928Z" fill="#150136" fill-opacity="0.3"/>
<path d="M112.6 147H8.2V119.8L64.8 71.2C69.6 66.9333 73.0667 63 75.2 59.4C77.4667 55.6667 78.6 51.8 78.6 47.8C78.6 44.2 77.6667 41 75.8 38.2C74.0667 35.4 71.6667 33.2 68.6 31.6C65.5333 30 62.1333 29.2 58.4 29.2C52.9333 29.2 47.4667 30.8 42 34C36.6667 37.0667 31.5333 42.2 26.6 49.4L4.8 27.6C11.6 19.0667 19.5333 12.4667 28.6 7.79999C37.8 3.13333 48.2667 0.799999 60 0.799999C70.5333 0.799999 79.6667 2.8 87.4 6.79999C95.1333 10.6667 101.133 16.0667 105.4 23C109.667 29.9333 111.8 37.9333 111.8 47C111.8 53 110.6 58.9333 108.2 64.8C105.8 70.5333 102.067 76.3333 97 82.2C92.0667 88.0667 85.6667 94.2 77.8 100.6C75.9333 102.2 73.4 104.267 70.2 106.8C67.1333 109.2 64 111.6 60.8 114C57.7333 116.4 55.1333 118.333 53 119.8H112.6V147ZM228.178 147H194.378V122.8H124.578V96L194.378 3.99999H228.178V96H246.378V122.8H228.178V147ZM194.378 47L156.378 96H194.378V47ZM293.111 147H261.111L318.111 0.799999H350.111L293.111 147ZM471.022 3.99999V31.2L406.222 147H369.422L436.422 31.2H365.422V3.99999H471.022Z" fill="#150136" fill-opacity="0.3"/>
</svg>
