<svg width="516" height="252" viewBox="0 0 516 252" fill="none" xmlns="http://www.w3.org/2000/svg">
<path d="M44.784 228.64H12.672V218.344H44.784V228.64ZM55.728 238H42.408L27 195.592H30.168L14.688 238H1.8L21.888 186.52H35.64L55.728 238ZM97.9937 238H85.8977V230.152L85.8257 229.36V219.352C85.8257 217.384 85.4657 215.728 84.7457 214.384C84.0257 212.992 83.0177 211.936 81.7217 211.216C80.4737 210.448 79.0337 210.064 77.4017 210.064C75.6737 210.064 74.1617 210.472 72.8657 211.288C71.6177 212.104 70.6577 213.232 69.9857 214.672C69.3137 216.112 68.9777 217.768 68.9777 219.64C68.9777 221.464 69.3377 223.12 70.0577 224.608C70.8257 226.048 71.8817 227.176 73.2257 227.992C74.5697 228.808 76.1297 229.216 77.9057 229.216C79.2977 229.216 80.5697 228.976 81.7217 228.496C82.8737 227.968 83.8337 227.248 84.6017 226.336C85.4177 225.376 85.9457 224.272 86.1857 223.024L88.9217 224.176C88.9217 226.912 88.3697 229.432 87.2657 231.736C86.1617 233.992 84.5297 235.792 82.3697 237.136C80.2577 238.48 77.6417 239.152 74.5217 239.152C71.3057 239.152 68.3057 238.336 65.5217 236.704C62.7857 235.072 60.5777 232.792 58.8977 229.864C57.2657 226.936 56.4497 223.528 56.4497 219.64C56.4497 215.704 57.2657 212.296 58.8977 209.416C60.5777 206.488 62.7857 204.208 65.5217 202.576C68.3057 200.944 71.3297 200.128 74.5937 200.128C77.4737 200.128 79.8977 200.68 81.8657 201.784C83.8817 202.888 85.4657 204.4 86.6177 206.32C87.7697 208.24 88.4657 210.424 88.7057 212.872H85.8257V186.16H97.9937V238ZM125.072 239.152C120.944 239.152 117.296 238.336 114.128 236.704C111.008 235.024 108.56 232.72 106.784 229.792C105.056 226.816 104.192 223.432 104.192 219.64C104.192 215.8 105.056 212.416 106.784 209.488C108.56 206.56 111.008 204.28 114.128 202.648C117.296 200.968 120.944 200.128 125.072 200.128C129.2 200.128 132.824 200.968 135.944 202.648C139.112 204.28 141.56 206.56 143.288 209.488C145.064 212.416 145.952 215.776 145.952 219.568C145.952 223.408 145.064 226.816 143.288 229.792C141.56 232.72 139.112 235.024 135.944 236.704C132.824 238.336 129.2 239.152 125.072 239.152ZM125.072 229.216C126.752 229.216 128.216 228.808 129.464 227.992C130.712 227.176 131.672 226.048 132.344 224.608C133.064 223.168 133.424 221.512 133.424 219.64C133.424 217.768 133.064 216.112 132.344 214.672C131.672 213.232 130.712 212.104 129.464 211.288C128.216 210.472 126.752 210.064 125.072 210.064C123.44 210.064 121.976 210.472 120.68 211.288C119.432 212.104 118.448 213.232 117.728 214.672C117.056 216.112 116.72 217.768 116.72 219.64C116.72 221.512 117.056 223.168 117.728 224.608C118.448 226.048 119.432 227.176 120.68 227.992C121.976 228.808 123.44 229.216 125.072 229.216ZM164.34 251.968H152.172V201.28H164.268V212.872H161.748C162.036 210.472 162.756 208.312 163.908 206.392C165.06 204.472 166.62 202.96 168.588 201.856C170.556 200.704 172.884 200.128 175.572 200.128C178.836 200.128 181.836 200.944 184.572 202.576C187.356 204.208 189.564 206.488 191.196 209.416C192.876 212.296 193.716 215.704 193.716 219.64C193.716 223.528 192.876 226.936 191.196 229.864C189.564 232.792 187.38 235.072 184.644 236.704C181.908 238.336 178.908 239.152 175.644 239.152C172.524 239.152 169.884 238.48 167.724 237.136C165.612 235.792 164.004 233.992 162.9 231.736C161.796 229.432 161.244 226.912 161.244 224.176L163.98 223.024C164.22 224.272 164.724 225.376 165.492 226.336C166.308 227.248 167.292 227.968 168.444 228.496C169.644 228.976 170.916 229.216 172.26 229.216C174.084 229.216 175.644 228.808 176.94 227.992C178.284 227.176 179.316 226.048 180.036 224.608C180.804 223.12 181.188 221.464 181.188 219.64C181.188 217.768 180.828 216.112 180.108 214.672C179.436 213.232 178.476 212.104 177.228 211.288C175.98 210.472 174.468 210.064 172.692 210.064C171.06 210.064 169.62 210.448 168.372 211.216C167.124 211.936 166.14 212.992 165.42 214.384C164.7 215.728 164.34 217.384 164.34 219.352V251.968ZM223.708 238H214.204C210.412 238 207.604 237.088 205.78 235.264C203.956 233.44 203.044 230.632 203.044 226.84V192.208H215.212V224.464C215.212 225.856 215.476 226.84 216.004 227.416C216.532 227.944 217.468 228.208 218.812 228.208H223.708V238ZM223.348 210.928H197.356V201.28H223.348V210.928ZM242.246 238H230.078V201.28H242.246V238ZM236.126 197.032C234.206 197.032 232.574 196.408 231.23 195.16C229.886 193.864 229.214 192.28 229.214 190.408C229.214 188.488 229.886 186.904 231.23 185.656C232.574 184.36 234.206 183.712 236.126 183.712C238.094 183.712 239.726 184.36 241.022 185.656C242.366 186.904 243.038 188.488 243.038 190.408C243.038 192.28 242.366 193.864 241.022 195.16C239.726 196.408 238.094 197.032 236.126 197.032ZM269.353 239.152C265.225 239.152 261.577 238.336 258.409 236.704C255.289 235.024 252.841 232.72 251.065 229.792C249.337 226.816 248.473 223.432 248.473 219.64C248.473 215.8 249.337 212.416 251.065 209.488C252.841 206.56 255.289 204.28 258.409 202.648C261.577 200.968 265.225 200.128 269.353 200.128C273.481 200.128 277.105 200.968 280.225 202.648C283.393 204.28 285.841 206.56 287.569 209.488C289.345 212.416 290.233 215.776 290.233 219.568C290.233 223.408 289.345 226.816 287.569 229.792C285.841 232.72 283.393 235.024 280.225 236.704C277.105 238.336 273.481 239.152 269.353 239.152ZM269.353 229.216C271.033 229.216 272.497 228.808 273.745 227.992C274.993 227.176 275.953 226.048 276.625 224.608C277.345 223.168 277.705 221.512 277.705 219.64C277.705 217.768 277.345 216.112 276.625 214.672C275.953 213.232 274.993 212.104 273.745 211.288C272.497 210.472 271.033 210.064 269.353 210.064C267.721 210.064 266.257 210.472 264.961 211.288C263.713 212.104 262.729 213.232 262.009 214.672C261.337 216.112 261.001 217.768 261.001 219.64C261.001 221.512 261.337 223.168 262.009 224.608C262.729 226.048 263.713 227.176 264.961 227.992C266.257 228.808 267.721 229.216 269.353 229.216ZM333.461 238H321.293V216.76C321.293 214.504 320.789 212.824 319.781 211.72C318.773 210.616 317.405 210.064 315.677 210.064C314.477 210.064 313.325 210.4 312.221 211.072C311.165 211.696 310.301 212.68 309.629 214.024C308.957 215.368 308.621 217.144 308.621 219.352V238H296.453V201.28H308.549V212.872H307.181C307.517 209.416 308.357 206.776 309.701 204.952C311.045 203.128 312.605 201.88 314.381 201.208C316.205 200.488 317.933 200.128 319.565 200.128C323.837 200.128 327.221 201.448 329.717 204.088C332.213 206.728 333.461 210.544 333.461 215.536V238ZM367.707 238H355.323V186.52H376.851C380.691 186.52 384.075 187.216 387.003 188.608C389.931 190 392.211 191.944 393.843 194.44C395.475 196.888 396.291 199.768 396.291 203.08C396.291 206.344 395.475 209.224 393.843 211.72C392.211 214.216 389.931 216.16 387.003 217.552C384.075 218.944 380.691 219.64 376.851 219.64H366.987V209.344H376.851C378.963 209.344 380.643 208.792 381.891 207.688C383.139 206.536 383.763 205 383.763 203.08C383.763 201.16 383.139 199.648 381.891 198.544C380.643 197.392 378.963 196.816 376.851 196.816H367.707V238ZM401.763 238H386.787L369.579 214.024H383.691L401.763 238ZM439.25 238H428.378V230.512L427.73 229.864V216.04C427.73 213.784 426.986 212.08 425.498 210.928C424.058 209.776 422.066 209.2 419.522 209.2C417.602 209.2 415.778 209.536 414.05 210.208C412.322 210.88 410.81 211.84 409.514 213.088L403.754 205.888C405.674 204.112 408.074 202.72 410.954 201.712C413.882 200.656 416.954 200.128 420.17 200.128C423.962 200.128 427.274 200.728 430.106 201.928C432.986 203.128 435.218 204.904 436.802 207.256C438.434 209.56 439.25 212.416 439.25 215.824V238ZM416.858 239.152C414.026 239.152 411.506 238.648 409.298 237.64C407.138 236.584 405.458 235.144 404.258 233.32C403.058 231.496 402.458 229.36 402.458 226.912C402.458 224.416 403.201 222.28 404.689 220.504C406.178 218.728 408.314 217.36 411.098 216.4C413.882 215.392 417.17 214.888 420.962 214.888H428.738V222.232H421.682C419.522 222.232 417.818 222.616 416.57 223.384C415.37 224.152 414.77 225.16 414.77 226.408C414.77 227.608 415.25 228.568 416.21 229.288C417.218 230.008 418.49 230.368 420.026 230.368C421.514 230.368 422.882 230.032 424.13 229.36C425.378 228.688 426.386 227.776 427.154 226.624C427.97 225.472 428.45 224.176 428.594 222.736L431.69 224.032C431.69 227.056 431.066 229.72 429.818 232.024C428.618 234.28 426.89 236.032 424.634 237.28C422.426 238.528 419.834 239.152 416.858 239.152ZM469.872 238H460.368C456.576 238 453.768 237.088 451.944 235.264C450.12 233.44 449.208 230.632 449.208 226.84V192.208H461.376V224.464C461.376 225.856 461.64 226.84 462.168 227.416C462.696 227.944 463.632 228.208 464.976 228.208H469.872V238ZM469.512 210.928H443.52V201.28H469.512V210.928ZM506.876 225.904L512.78 233.176C510.956 235.048 508.532 236.512 505.508 237.568C502.532 238.624 499.316 239.152 495.86 239.152C491.396 239.152 487.508 238.336 484.196 236.704C480.884 235.072 478.292 232.792 476.42 229.864C474.596 226.936 473.684 223.552 473.684 219.712C473.684 215.824 474.572 212.416 476.348 209.488C478.124 206.512 480.524 204.208 483.548 202.576C486.62 200.944 490.028 200.128 493.772 200.128C497.468 200.128 500.756 200.944 503.636 202.576C506.516 204.16 508.772 206.392 510.404 209.272C512.036 212.104 512.852 215.416 512.852 219.208V219.64H501.044V218.344C501.044 216.472 500.756 214.864 500.18 213.52C499.604 212.176 498.764 211.144 497.66 210.424C496.604 209.656 495.284 209.272 493.7 209.272C492.164 209.272 490.796 209.68 489.596 210.496C488.444 211.264 487.532 212.392 486.86 213.88C486.188 215.368 485.852 217.216 485.852 219.424C485.852 221.776 486.308 223.744 487.22 225.328C488.132 226.864 489.404 228.016 491.036 228.784C492.668 229.552 494.54 229.936 496.652 229.936C500.54 229.936 503.948 228.592 506.876 225.904ZM512.852 223.168H480.956V216.112H511.628L512.852 219.28V223.168Z" fill="#150136" fill-opacity="0.3"/>
<path d="M151.6 150.2C140 150.2 129.8 148.333 121 144.6C112.333 140.733 105.533 135.533 100.6 129C95.8 122.333 93.4 114.867 93.4 106.6C93.4 98.3333 95.9333 91.0667 101 84.8C106.067 78.5333 112.933 73.6667 121.6 70.2C130.4 66.7333 140.4 65 151.6 65C162.933 65 172.933 66.7333 181.6 70.2C190.4 73.6667 197.267 78.5333 202.2 84.8C207.267 91.0667 209.8 98.3333 209.8 106.6C209.8 114.867 207.333 122.333 202.4 129C197.6 135.533 190.867 140.733 182.2 144.6C173.533 148.333 163.333 150.2 151.6 150.2ZM151.6 76.4C141.6 76.4 132.667 74.8667 124.8 71.8C116.933 68.7333 110.733 64.4667 106.2 59C101.667 53.4 99.4 46.9333 99.4 39.6C99.4 32.4 101.533 25.8667 105.8 20C110.2 14.1333 116.333 9.46666 124.2 5.99999C132.067 2.53333 141.2 0.799999 151.6 0.799999C162.133 0.799999 171.267 2.53333 179 5.99999C186.867 9.46666 192.933 14.1333 197.2 20C201.6 25.8667 203.8 32.4 203.8 39.6C203.8 46.9333 201.533 53.4 197 59C192.467 64.4667 186.267 68.7333 178.4 71.8C170.667 74.8667 161.733 76.4 151.6 76.4ZM151.6 122.6C156.267 122.6 160.333 121.867 163.8 120.4C167.267 118.933 170 116.867 172 114.2C174 111.4 175 108.2 175 104.6C175 101 174 97.8667 172 95.2C170 92.5333 167.267 90.4667 163.8 89C160.333 87.4 156.267 86.6 151.6 86.6C147.067 86.6 143 87.4 139.4 89C135.933 90.4667 133.2 92.5333 131.2 95.2C129.2 97.8667 128.2 101 128.2 104.6C128.2 108.2 129.2 111.4 131.2 114.2C133.2 116.867 135.933 118.933 139.4 120.4C143 121.867 147.067 122.6 151.6 122.6ZM151.6 59.6C155.333 59.6 158.6 58.9333 161.4 57.6C164.2 56.1333 166.4 54.2 168 51.8C169.6 49.4 170.4 46.6667 170.4 43.6C170.4 40.5333 169.6 37.8 168 35.4C166.4 33 164.2 31.1333 161.4 29.8C158.6 28.3333 155.333 27.6 151.6 27.6C148 27.6 144.733 28.3333 141.8 29.8C139 31.1333 136.8 33 135.2 35.4C133.6 37.8 132.8 40.5333 132.8 43.6C132.8 46.6667 133.6 49.4 135.2 51.8C136.8 54.2 139 56.1333 141.8 57.6C144.733 58.9333 148 59.6 151.6 59.6ZM283.25 150.2C270.717 150.2 259.917 147.333 250.85 141.6C241.917 135.733 235.05 127.267 230.25 116.2C225.45 105 223.05 91.4667 223.05 75.6C223.05 51.6 228.383 33.1333 239.05 20.2C249.717 7.26667 264.45 0.799999 283.25 0.799999C302.05 0.799999 316.783 7.26667 327.45 20.2C338.117 33.1333 343.45 51.6 343.45 75.6C343.45 91.4667 341.05 105 336.25 116.2C331.45 127.267 324.517 135.733 315.45 141.6C306.517 147.333 295.783 150.2 283.25 150.2ZM283.25 122.6C291.25 122.6 297.45 118.733 301.85 111C306.383 103.133 308.65 91.3333 308.65 75.6C308.65 59.7333 306.383 47.9333 301.85 40.2C297.45 32.3333 291.25 28.4 283.25 28.4C275.25 28.4 268.983 32.3333 264.45 40.2C260.05 47.9333 257.85 59.7333 257.85 75.6C257.85 91.3333 260.05 103.133 264.45 111C268.983 118.733 275.25 122.6 283.25 122.6ZM397.281 147H364.281L467.481 3.99999H500.481L397.281 147ZM477.481 149.8C470.948 149.8 465.015 148.267 459.681 145.2C454.348 142.133 450.148 137.933 447.081 132.6C444.015 127.267 442.481 121.267 442.481 114.6C442.481 108.067 444.015 102.2 447.081 97C450.148 91.6667 454.348 87.4667 459.681 84.4C465.015 81.3333 470.948 79.8 477.481 79.8C484.148 79.8 490.081 81.3333 495.281 84.4C500.615 87.4667 504.815 91.6667 507.881 97C510.948 102.2 512.481 108.133 512.481 114.8C512.481 121.333 510.948 127.267 507.881 132.6C504.815 137.933 500.615 142.133 495.281 145.2C490.081 148.267 484.148 149.8 477.481 149.8ZM477.481 126.8C480.548 126.8 483.148 125.667 485.281 123.4C487.415 121 488.481 118.133 488.481 114.8C488.481 111.467 487.415 108.667 485.281 106.4C483.148 104 480.548 102.8 477.481 102.8C474.415 102.8 471.815 104 469.681 106.4C467.548 108.667 466.481 111.467 466.481 114.8C466.481 118.133 467.548 121 469.681 123.4C471.815 125.667 474.415 126.8 477.481 126.8ZM387.281 71.2C380.748 71.2 374.815 69.6667 369.481 66.6C364.148 63.5333 359.948 59.3333 356.881 54C353.815 48.6667 352.281 42.6667 352.281 36C352.281 29.4667 353.815 23.6 356.881 18.4C359.948 13.0667 364.148 8.86666 369.481 5.79999C374.815 2.73333 380.748 1.19999 387.281 1.19999C393.948 1.19999 399.881 2.73333 405.081 5.79999C410.415 8.86666 414.615 13.0667 417.681 18.4C420.748 23.6 422.281 29.5333 422.281 36.2C422.281 42.7333 420.748 48.6667 417.681 54C414.615 59.3333 410.415 63.5333 405.081 66.6C399.881 69.6667 393.948 71.2 387.281 71.2ZM387.281 48.2C390.348 48.2 392.948 47.0667 395.081 44.8C397.215 42.4 398.281 39.5333 398.281 36.2C398.281 32.8667 397.215 30.0667 395.081 27.8C392.948 25.4 390.348 24.2 387.281 24.2C384.215 24.2 381.615 25.4 379.481 27.8C377.348 30.0667 376.281 32.8667 376.281 36.2C376.281 39.5333 377.348 42.4 379.481 44.8C381.615 47.0667 384.215 48.2 387.281 48.2Z" fill="#150136" fill-opacity="0.3"/>
</svg>
