<svg width="48" height="48" viewBox="0 0 48 48" fill="none" xmlns="http://www.w3.org/2000/svg">
<g id="Huge-icon/education/bulk/physics">
<g id="physcis">
<path id="Vector (Stroke)" fill-rule="evenodd" clip-rule="evenodd" d="M31.6794 8.83846C27.6617 10.5603 22.8907 13.8639 18.3773 18.3773C13.8639 22.8908 10.5603 27.6618 8.83845 31.6795C7.97576 33.6924 7.54167 35.4431 7.50282 36.8355C7.46409 38.2234 7.81533 39.1103 8.35247 39.6474C8.88961 40.1846 9.77642 40.5358 11.1644 40.4971C12.5567 40.4582 14.3074 40.0241 16.3204 39.1614C20.338 37.4396 25.109 34.136 29.6224 29.6225C34.1358 25.1091 37.4394 20.3381 39.1613 16.3204C40.024 14.3074 40.4581 12.5567 40.4969 11.1644C40.5356 9.77643 40.1844 8.88962 39.6473 8.35248C39.1101 7.81533 38.2233 7.46409 36.8353 7.50282C35.443 7.54167 33.6923 7.97576 31.6794 8.83846ZM36.7517 4.50399C38.6538 4.45091 40.4602 4.92277 41.7686 6.23116C43.077 7.53954 43.5488 9.34596 43.4957 11.2481C43.4428 13.1459 42.8702 15.2821 41.9187 17.5022C40.0123 21.9505 36.4579 27.0296 31.7437 31.7438C27.0296 36.4581 21.9504 40.0124 17.5021 41.9189C15.2821 42.8703 13.1458 43.4429 11.2481 43.4959C9.34594 43.549 7.53953 43.0771 6.23115 41.7687C4.92277 40.4603 4.45091 38.6539 4.50399 36.7518C4.55694 34.854 5.12958 32.7178 6.08102 30.4977C7.98743 26.0494 11.5418 20.9702 16.256 16.256C20.9702 11.5418 26.0493 7.98745 30.4976 6.08103C32.7176 5.12958 34.8539 4.55694 36.7517 4.50399Z" fill="#4D3886"/>
<path id="Vector (Stroke)_2" opacity="0.4" fill-rule="evenodd" clip-rule="evenodd" d="M11.1644 7.50282C9.77642 7.46409 8.88961 7.81533 8.35247 8.35248C7.81533 8.88962 7.46409 9.77643 7.50282 11.1644C7.54167 12.5567 7.97576 14.3074 8.83845 16.3204C10.5603 20.3381 13.8639 25.1091 18.3773 29.6225C22.8907 34.136 27.6617 37.4396 31.6794 39.1614C33.6923 40.0241 35.443 40.4582 36.8353 40.4971C38.2233 40.5358 39.1101 40.1846 39.6473 39.6474C40.1844 39.1103 40.5356 38.2235 40.4969 36.8355C40.4581 35.4431 40.024 33.6924 39.1613 31.6795C37.4394 27.6618 34.1358 22.8908 29.6224 18.3774C25.109 13.8639 20.338 10.5603 16.3204 8.83846C14.3074 7.97576 12.5567 7.54167 11.1644 7.50282ZM17.5021 6.08103C21.9504 7.98745 27.0296 11.5418 31.7437 16.256C36.4579 20.9703 40.0123 26.0494 41.9187 30.4977C42.8702 32.7178 43.4428 34.854 43.4957 36.7518C43.5488 38.6539 43.077 40.4603 41.7686 41.7687C40.4602 43.0771 38.6538 43.549 36.7517 43.4959C34.8539 43.4429 32.7176 42.8703 30.4976 41.9189C26.0493 40.0124 20.9702 36.4581 16.256 31.7439C11.5418 27.0296 7.98743 21.9505 6.08102 17.5022C5.12958 15.2821 4.55694 13.1459 4.50399 11.2481C4.45091 9.34596 4.92277 7.53954 6.23115 6.23116C7.53953 4.92277 9.34594 4.45091 11.2481 4.50399C13.1458 4.55694 15.2821 5.12958 17.5021 6.08103Z" fill="#4D3886"/>
<circle id="Ellipse 592" opacity="0.4" cx="24" cy="24" r="4" fill="#4D3886"/>
</g>
</g>
</svg>
