<svg width="48" height="48" viewBox="0 0 48 48" fill="none" xmlns="http://www.w3.org/2000/svg">
<g opacity="0.4">
<path d="M40 6H16C13.7909 6 12 7.79086 12 10V16C12 17.1046 11.1046 18 10 18C6.68629 18 4 20.6863 4 24C4 27.3137 6.68629 30 10 30C11.1046 30 12 30.8954 12 32V38C12 40.2091 13.7909 42 16 42H20C21.1046 42 22 41.1046 22 40C22 36.6863 24.6863 34 28 34C31.3137 34 34 36.6863 34 40C34 41.1046 34.8954 42 36 42H40C42.2091 42 44 40.2091 44 38V32C44 30.8954 43.1046 30 42 30C38.6863 30 36 27.3137 36 24C36 20.6863 38.6863 18 42 18C43.1046 18 44 17.1046 44 16V10C44 7.79086 42.2091 6 40 6Z" fill="#4D3886"/>
</g>
</svg>
