<svg width="48" height="48" viewBox="0 0 48 48" fill="none" xmlns="http://www.w3.org/2000/svg">
<g id="Huge-icon/interface/bulk/presentation">
<g id="presentation">
<path id="Vector 480 (Stroke)" fill-rule="evenodd" clip-rule="evenodd" d="M25.5 35.9922V44.0001C25.5 44.8285 24.8284 45.5001 24 45.5001C23.1716 45.5001 22.5 44.8285 22.5 44.0001V35.9922H25.5Z" fill="#4D3886"/>
<path id="Rectangle 129" opacity="0.4" d="M6 10H42V32C42 34.2091 40.2091 36 38 36H10C7.79086 36 6 34.2091 6 32V10Z" fill="#4D3886"/>
<path id="Rectangle 128" d="M4 8C4 5.79086 5.79086 4 8 4H40C42.2091 4 44 5.79086 44 8C44 10.2091 42.2091 12 40 12H8C5.79086 12 4 10.2091 4 8Z" fill="#4D3886"/>
<path id="Vector 2515 (Stroke)" fill-rule="evenodd" clip-rule="evenodd" d="M32.772 18.714C33.4823 19.1402 33.7127 20.0616 33.2865 20.772L31.122 24.3795C29.3071 27.4042 25.0325 27.6917 22.8289 24.9373C21.9314 23.8153 20.1902 23.9324 19.451 25.1645L17.2865 28.772C16.8602 29.4823 15.9389 29.7127 15.2285 29.2865C14.5181 28.8602 14.2878 27.9389 14.714 27.2285L16.8785 23.621C18.6933 20.5962 22.968 20.3087 25.1715 23.0632C26.0691 24.1851 27.8103 24.068 28.5495 22.836L30.714 19.2285C31.1402 18.5181 32.0616 18.2878 32.772 18.714Z" fill="#4D3886"/>
</g>
</g>
</svg>
