<svg width="24" height="24" viewBox="0 0 24 24" fill="none" xmlns="http://www.w3.org/2000/svg">
<path d="M12 21C16.9706 21 21 16.9706 21 12C21 7.02944 16.9706 3 12 3C7.02944 3 3 7.02944 3 12C3 16.9706 7.02944 21 12 21Z" fill="#FF4500"/>
<path d="M17.9871 12.0854C17.9871 11.3558 17.3971 10.7765 16.6781 10.7765C16.3241 10.7765 16.0021 10.9158 15.7661 11.1412C14.8649 10.4974 13.6309 10.079 12.2575 10.0254L12.8583 7.21425L14.8111 7.63265C14.8327 8.12625 15.2403 8.52325 15.7447 8.52325C16.2597 8.52325 16.6781 8.10485 16.6781 7.58965C16.6781 7.07465 16.2597 6.65625 15.7447 6.65625C15.3799 6.65625 15.0579 6.87085 14.9077 7.18205L12.7297 6.72065C12.6653 6.70985 12.6009 6.72065 12.5579 6.75285C12.5043 6.78505 12.4721 6.83865 12.4615 6.90305L11.7961 10.036C10.4013 10.079 9.14588 10.4974 8.23388 11.1521C7.99788 10.9267 7.67588 10.7873 7.32188 10.7873C6.59228 10.7873 6.01288 11.3773 6.01288 12.0963C6.01288 12.6327 6.33468 13.0833 6.78548 13.2873C6.76388 13.4159 6.75328 13.5447 6.75328 13.6843C6.75328 15.7013 9.10308 17.3431 12.0001 17.3431C14.8971 17.3431 17.2469 15.7121 17.2469 13.6843C17.2469 13.5554 17.2361 13.4159 17.2147 13.2873C17.6653 13.0833 17.9871 12.6219 17.9871 12.0854ZM8.99568 13.0188C8.99568 12.5038 9.41408 12.0854 9.92928 12.0854C10.4443 12.0854 10.8627 12.5038 10.8627 13.0188C10.8627 13.5338 10.4443 13.9525 9.92928 13.9525C9.41408 13.9631 8.99568 13.5338 8.99568 13.0188ZM14.2211 15.4974C13.5773 16.1413 12.3541 16.1842 12.0001 16.1842C11.6353 16.1842 10.4121 16.1305 9.77888 15.4974C9.68248 15.4009 9.68248 15.2507 9.77888 15.1541C9.87548 15.0577 10.0257 15.0577 10.1223 15.1541C10.5301 15.5619 11.3885 15.7013 12.0001 15.7013C12.6117 15.7013 13.4807 15.5619 13.8777 15.1541C13.9743 15.0577 14.1245 15.0577 14.2211 15.1541C14.3069 15.2507 14.3069 15.4009 14.2211 15.4974ZM14.0493 13.963C13.5343 13.963 13.1159 13.5447 13.1159 13.0297C13.1159 12.5147 13.5343 12.0963 14.0493 12.0963C14.5645 12.0963 14.9829 12.5147 14.9829 13.0297C14.9829 13.5339 14.5645 13.963 14.0493 13.963Z" fill="white"/>
</svg>
