<svg width="48" height="48" viewBox="0 0 48 48" fill="none" xmlns="http://www.w3.org/2000/svg">
<g id="Huge-icon/interface/bulk/share">
<g id="share">
<path id="Vector (Stroke)" opacity="0.4" fill-rule="evenodd" clip-rule="evenodd" d="M36.0795 11.4604C36.4499 12.2013 36.1496 13.1023 35.4086 13.4728L14.3543 24L35.4086 34.5272C36.1496 34.8977 36.4499 35.7987 36.0795 36.5396C35.709 37.2806 34.808 37.581 34.067 37.2105L12.5917 26.4728C11.8507 26.1023 11.5504 25.2013 11.9209 24.4604C12.0113 24.2796 12.1333 24.125 12.2768 24C12.1333 23.875 12.0113 23.7205 11.9209 23.5396C11.5504 22.7987 11.8507 21.8977 12.5917 21.5272L34.067 10.7895C34.808 10.4191 35.709 10.7194 36.0795 11.4604Z" fill="#4D3886"/>
<g id="Vector">
<path d="M44 11C44 14.866 40.866 18 37 18C34.2595 18 31.8869 16.4252 30.7376 14.1312C30.2656 13.189 30 12.1255 30 11C30 7.13401 33.134 4 37 4C40.866 4 44 7.13401 44 11Z" fill="#4D3886"/>
<path d="M44 37C44 40.866 40.866 44 37 44C33.134 44 30 40.866 30 37C30 35.8745 30.2656 34.811 30.7376 33.8688C31.8869 31.5748 34.2595 30 37 30C40.866 30 44 33.134 44 37Z" fill="#4D3886"/>
<path d="M18 24C18 25.1255 17.7344 26.189 17.2624 27.1312C16.1131 29.4252 13.7405 31 11 31C7.13401 31 4 27.866 4 24C4 20.134 7.13401 17 11 17C13.7405 17 16.1131 18.5748 17.2624 20.8688C17.7344 21.811 18 22.8745 18 24Z" fill="#4D3886"/>
</g>
</g>
</g>
</svg>
