<svg width="48" height="48" viewBox="0 0 48 48" fill="none" xmlns="http://www.w3.org/2000/svg">
<g id="Huge-icon/interface/bulk/speed test">
<g id="speed test">
<path id="Vector 338" opacity="0.4" d="M36 40H12C7.58172 40 4 36.4183 4 32V28C4 16.9543 12.9543 8 24 8C35.0457 8 44 16.9543 44 28V32C44 36.4183 40.4183 40 36 40Z" fill="#4D3886"/>
<path id="Ellipse 83 (Stroke)" fill-rule="evenodd" clip-rule="evenodd" d="M23.9999 15.5C19.1198 15.5 16.2843 17.8942 14.3943 20.8149C13.9442 21.5104 13.0155 21.7094 12.32 21.2593C11.6245 20.8093 11.4255 19.8806 11.8756 19.1851C14.1695 15.6402 17.8553 12.5 23.9999 12.5C30.1444 12.5 33.8302 15.6402 36.1241 19.1851C36.5742 19.8806 36.3752 20.8093 35.6797 21.2593C34.9842 21.7094 34.0556 21.5104 33.6055 20.8149C31.7154 17.8942 28.88 15.5 23.9999 15.5Z" fill="#4D3886"/>
<path id="Union" fill-rule="evenodd" clip-rule="evenodd" d="M31.3416 24.6707C31.7121 23.9297 31.4118 23.0287 30.6708 22.6582C29.9298 22.2877 29.0288 22.5881 28.6583 23.329L23.3029 34.0399C20.3176 34.3853 18 36.9219 18 39.9999H30C30 37.5482 28.5295 35.4399 26.4225 34.509L31.3416 24.6707Z" fill="#4D3886"/>
</g>
</g>
</svg>
