<svg width="24" height="24" viewBox="0 0 24 24" fill="none" xmlns="http://www.w3.org/2000/svg">
<path d="M18.3554 8.74151C18.3655 8.88363 18.3655 9.02579 18.3655 9.16791C18.3655 13.5029 15.066 18.4979 9.03555 18.4979C7.17767 18.4979 5.45179 17.9598 4 17.0258C4.26397 17.0563 4.51775 17.0664 4.79188 17.0664C6.32485 17.0664 7.73605 16.5487 8.86296 15.6654C7.42133 15.6349 6.2132 14.6908 5.79694 13.3913C6.00001 13.4217 6.20304 13.442 6.41626 13.442C6.71067 13.442 7.00511 13.4014 7.2792 13.3304C5.77666 13.0258 4.64972 11.706 4.64972 10.1121V10.0715C5.08625 10.3151 5.59391 10.4674 6.13195 10.4877C5.24869 9.89885 4.67003 8.89379 4.67003 7.75672C4.67003 7.14759 4.83244 6.58922 5.11672 6.1019C6.73095 8.09175 9.15736 9.39123 11.8782 9.53338C11.8274 9.28973 11.7969 9.03594 11.7969 8.78213C11.7969 6.975 13.2589 5.50293 15.0761 5.50293C16.0203 5.50293 16.8731 5.89887 17.4721 6.53847C18.2132 6.39634 18.9238 6.12221 19.5533 5.74659C19.3096 6.50803 18.7919 7.14762 18.1117 7.55369C18.7716 7.48266 19.4112 7.29987 20 7.04609C19.5534 7.69581 18.995 8.27447 18.3554 8.74151Z" fill="#1DA1F2"/>
</svg>
